<svg xmlns="http://www.w3.org/2000/svg" viewBox="0 0 1200 300" width="100%" role="img" aria-label="wpggLabs">
<defs>
  <linearGradient id="bg" x1="0" y1="0" x2="1" y2="1">
    <stop offset="0" stop-color="#070912"/>
    <stop offset="0.55" stop-color="#0b0d1e"/>
    <stop offset="1" stop-color="#0a0714"/>
  </linearGradient>
  <linearGradient id="wm" x1="0" y1="0" x2="1" y2="0.4">
    <stop offset="0" stop-color="#e9d5ff"/>
    <stop offset="0.4" stop-color="#a78bfa"/>
    <stop offset="0.72" stop-color="#22d3ee"/>
    <stop offset="1" stop-color="#38bdf8"/>
  </linearGradient>
  <linearGradient id="line" x1="0" x2="1">
    <stop offset="0" stop-color="#22d3ee" stop-opacity="0"/>
    <stop offset="0.5" stop-color="#22d3ee"/>
    <stop offset="1" stop-color="#7c3aed" stop-opacity="0"/>
  </linearGradient>
  <radialGradient id="glow" cx="0.28" cy="0.55" r="0.75">
    <stop offset="0" stop-color="#7c3aed" stop-opacity="0.35"/>
    <stop offset="1" stop-color="#7c3aed" stop-opacity="0"/>
  </radialGradient>
  <radialGradient id="glow2" cx="0.82" cy="0.4" r="0.6">
    <stop offset="0" stop-color="#22d3ee" stop-opacity="0.22"/>
    <stop offset="1" stop-color="#22d3ee" stop-opacity="0"/>
  </radialGradient>
  <filter id="soft"><feGaussianBlur stdDeviation="0.6"/></filter>
  <pattern id="grid" width="34" height="34" patternUnits="userSpaceOnUse">
    <path d="M34 0H0V34" fill="none" stroke="#1b2340" stroke-width="1"/>
  </pattern>
  <clipPath id="round"><rect width="1200" height="300" rx="20"/></clipPath>
</defs>

<g clip-path="url(#round)">
  <rect width="1200" height="300" fill="url(#bg)"/>
  <rect width="1200" height="300" fill="url(#grid)" opacity="0.6"/>
  <rect width="1200" height="300" fill="url(#glow)"/>
  <rect width="1200" height="300" fill="url(#glow2)"/>

  <!-- concentric HUD arcs top-right -->
  <g stroke="#22d3ee" fill="none" opacity="0.5">
    <circle cx="1120" cy="150" r="150" stroke-opacity="0.18"/>
    <circle cx="1120" cy="150" r="110" stroke-opacity="0.28"/>
    <circle cx="1120" cy="150" r="70"  stroke-opacity="0.4"/>
  </g>
  <g stroke="#7c3aed" fill="none">
    <path d="M1120 40 A110 110 0 0 1 1230 150" stroke-width="2" opacity="0.8"/>
    <path d="M1120 260 A110 110 0 0 1 1010 150" stroke-width="2" opacity="0.55"/>
  </g>
  <circle cx="1120" cy="150" r="5" fill="#22d3ee"/>

  <!-- node/edge motif bottom-left -->
  <g stroke="#38bdf8" stroke-width="1.4" opacity="0.55">
    <line x1="72" y1="250" x2="150" y2="228"/>
    <line x1="150" y1="228" x2="220" y2="258"/>
    <line x1="150" y1="228" x2="120" y2="196"/>
  </g>
  <g fill="#38bdf8">
    <circle cx="72" cy="250" r="3.5"/><circle cx="150" cy="228" r="4.5"/>
    <circle cx="220" cy="258" r="3.5"/><circle cx="120" cy="196" r="3"/>
  </g>

  <!-- top hairline -->
  <rect x="70" y="96" width="600" height="2" fill="url(#line)"/>

  <!-- top label -->
  <g fill="#5eead4" opacity="0.85"><path transform="translate(74.00,84.00) scale(0.01400,-0.01400)" d="M-16 -200 278 700H404L110 -200Z"/><path transform="translate(81.43,84.00) scale(0.01400,-0.01400)" d="M-16 -200 278 700H404L110 -200Z"/><path transform="translate(94.42,84.00) scale(0.01400,-0.01400)" d="M66 0V700H198V0Z"/><path transform="translate(100.12,84.00) scale(0.01400,-0.01400)" d="M66 0V700H317L456 90H474V700H604V0H353L214 610H196V0Z"/><path transform="translate(111.50,84.00) scale(0.01400,-0.01400)" d="M46 0V116H138V584H46V700H334Q475 700 548.5 628.5Q622 557 622 416V284Q622 143 548.5 71.5Q475 0 334 0ZM270 120H336Q416 120 453.0 162.0Q490 204 490 280V420Q490 497 453.0 538.5Q416 580 336 580H270Z"/><path transform="translate(122.82,84.00) scale(0.01400,-0.01400)" d="M66 0V700H198V0Z"/><path transform="translate(128.52,84.00) scale(0.01400,-0.01400)" d="M66 0V700H516V580H198V413H488V293H198V120H522V0Z"/><path transform="translate(143.83,84.00) scale(0.01400,-0.01400)" d="M66 0V700H198V120H518V0Z"/><path transform="translate(153.42,84.00) scale(0.01400,-0.01400)" d="M18 0 202 700H432L616 0H480L442 154H192L154 0ZM223 276H411L326 617H308Z"/><path transform="translate(164.29,84.00) scale(0.01400,-0.01400)" d="M46 0V116H138V584H46V700H406Q470 700 517.5 678.5Q565 657 591.5 617.5Q618 578 618 523V513Q618 465 600.0 434.5Q582 404 557.5 387.5Q533 371 511 364V346Q533 340 559.0 323.5Q585 307 603.5 276.0Q622 245 622 195V185Q622 127 595.0 85.5Q568 44 520.5 22.0Q473 0 410 0ZM270 120H394Q437 120 463.5 141.0Q490 162 490 201V211Q490 250 464.0 271.0Q438 292 394 292H270ZM270 412H392Q433 412 459.5 433.0Q486 454 486 491V501Q486 539 460.0 559.5Q434 580 392 580H270Z"/><path transform="translate(175.59,84.00) scale(0.01400,-0.01400)" d="M309 -14Q228 -14 166.0 15.0Q104 44 69.0 98.0Q34 152 34 228V256H164V228Q164 165 203.0 133.5Q242 102 309 102Q377 102 410.5 129.0Q444 156 444 198Q444 227 427.5 245.0Q411 263 379.5 274.5Q348 286 303 296L280 301Q208 317 156.5 341.5Q105 366 77.5 406.0Q50 446 50 510Q50 574 80.5 619.5Q111 665 166.5 689.5Q222 714 297 714Q372 714 430.5 688.5Q489 663 522.5 612.5Q556 562 556 486V456H426V486Q426 526 410.5 550.5Q395 575 366.0 586.5Q337 598 297 598Q237 598 208.5 575.5Q180 553 180 514Q180 488 193.5 470.0Q207 452 234.0 440.0Q261 428 303 419L326 414Q401 398 456.5 373.0Q512 348 543.0 307.0Q574 266 574 202Q574 138 541.5 89.5Q509 41 449.5 13.5Q390 -14 309 -14Z"/><path transform="translate(191.63,84.00) scale(0.01400,-0.01400)" d="M68 198V312H820V198Z"/><path transform="translate(211.62,84.00) scale(0.01400,-0.01400)" d="M309 -14Q228 -14 166.0 15.0Q104 44 69.0 98.0Q34 152 34 228V256H164V228Q164 165 203.0 133.5Q242 102 309 102Q377 102 410.5 129.0Q444 156 444 198Q444 227 427.5 245.0Q411 263 379.5 274.5Q348 286 303 296L280 301Q208 317 156.5 341.5Q105 366 77.5 406.0Q50 446 50 510Q50 574 80.5 619.5Q111 665 166.5 689.5Q222 714 297 714Q372 714 430.5 688.5Q489 663 522.5 612.5Q556 562 556 486V456H426V486Q426 526 410.5 550.5Q395 575 366.0 586.5Q337 598 297 598Q237 598 208.5 575.5Q180 553 180 514Q180 488 193.5 470.0Q207 452 234.0 440.0Q261 428 303 419L326 414Q401 398 456.5 373.0Q512 348 543.0 307.0Q574 266 574 202Q574 138 541.5 89.5Q509 41 449.5 13.5Q390 -14 309 -14Z"/><path transform="translate(222.10,84.00) scale(0.01400,-0.01400)" d="M66 0V700H198V411H458V700H590V0H458V291H198V0Z"/><path transform="translate(233.28,84.00) scale(0.01400,-0.01400)" d="M66 0V700H198V0Z"/><path transform="translate(238.98,84.00) scale(0.01400,-0.01400)" d="M66 0V700H354Q420 700 470.5 673.5Q521 647 549.5 599.0Q578 551 578 485V471Q578 406 548.5 357.5Q519 309 468.5 282.5Q418 256 354 256H198V0ZM198 376H341Q388 376 417.0 402.0Q446 428 446 473V483Q446 528 417.0 554.0Q388 580 341 580H198Z"/><path transform="translate(249.44,84.00) scale(0.01400,-0.01400)" d="M66 0V700H354Q420 700 470.5 673.5Q521 647 549.5 599.0Q578 551 578 485V471Q578 406 548.5 357.5Q519 309 468.5 282.5Q418 256 354 256H198V0ZM198 376H341Q388 376 417.0 402.0Q446 428 446 473V483Q446 528 417.0 554.0Q388 580 341 580H198Z"/><path transform="translate(259.89,84.00) scale(0.01400,-0.01400)" d="M66 0V700H198V0Z"/><path transform="translate(265.59,84.00) scale(0.01400,-0.01400)" d="M66 0V700H317L456 90H474V700H604V0H353L214 610H196V0Z"/><path transform="translate(276.97,84.00) scale(0.01400,-0.01400)" d="M308 -14Q236 -14 177.5 18.5Q119 51 84.5 113.5Q50 176 50 266V434Q50 569 126.0 641.5Q202 714 332 714Q461 714 531.5 645.5Q602 577 602 460V456H472V464Q472 501 456.5 531.0Q441 561 410.0 578.5Q379 596 332 596Q262 596 222.0 553.0Q182 510 182 436V264Q182 191 222.0 146.5Q262 102 334 102Q406 102 439.0 140.0Q472 178 472 236V246H306V358H602V0H480V67H462Q455 50 439.5 31.0Q424 12 393.0 -1.0Q362 -14 308 -14Z"/><path transform="translate(293.79,84.00) scale(0.01400,-0.01400)" d="M336 -14Q250 -14 188.5 17.5Q127 49 94.5 107.5Q62 166 62 246V700H194V242Q194 178 230.5 141.0Q267 104 336 104Q405 104 441.5 141.0Q478 178 478 242V700H610V246Q610 166 577.5 107.5Q545 49 483.5 17.5Q422 -14 336 -14Z"/><path transform="translate(305.20,84.00) scale(0.01400,-0.01400)" d="M309 -14Q228 -14 166.0 15.0Q104 44 69.0 98.0Q34 152 34 228V256H164V228Q164 165 203.0 133.5Q242 102 309 102Q377 102 410.5 129.0Q444 156 444 198Q444 227 427.5 245.0Q411 263 379.5 274.5Q348 286 303 296L280 301Q208 317 156.5 341.5Q105 366 77.5 406.0Q50 446 50 510Q50 574 80.5 619.5Q111 665 166.5 689.5Q222 714 297 714Q372 714 430.5 688.5Q489 663 522.5 612.5Q556 562 556 486V456H426V486Q426 526 410.5 550.5Q395 575 366.0 586.5Q337 598 297 598Q237 598 208.5 575.5Q180 553 180 514Q180 488 193.5 470.0Q207 452 234.0 440.0Q261 428 303 419L326 414Q401 398 456.5 373.0Q512 348 543.0 307.0Q574 266 574 202Q574 138 541.5 89.5Q509 41 449.5 13.5Q390 -14 309 -14Z"/><path transform="translate(315.68,84.00) scale(0.01400,-0.01400)" d="M66 0V700H516V580H198V413H488V293H198V120H522V0Z"/><path transform="translate(325.44,84.00) scale(0.01400,-0.01400)" d="M66 0V700H506V580H198V411H482V291H198V0Z"/><path transform="translate(334.92,84.00) scale(0.01400,-0.01400)" d="M336 -14Q250 -14 188.5 17.5Q127 49 94.5 107.5Q62 166 62 246V700H194V242Q194 178 230.5 141.0Q267 104 336 104Q405 104 441.5 141.0Q478 178 478 242V700H610V246Q610 166 577.5 107.5Q545 49 483.5 17.5Q422 -14 336 -14Z"/><path transform="translate(346.32,84.00) scale(0.01400,-0.01400)" d="M66 0V700H198V120H518V0Z"/><path transform="translate(361.47,84.00) scale(0.01400,-0.01400)" d="M228 0V580H24V700H564V580H360V0Z"/><path transform="translate(371.70,84.00) scale(0.01400,-0.01400)" d="M66 0V700H198V411H458V700H590V0H458V291H198V0Z"/><path transform="translate(382.88,84.00) scale(0.01400,-0.01400)" d="M66 0V700H198V0Z"/><path transform="translate(388.58,84.00) scale(0.01400,-0.01400)" d="M66 0V700H317L456 90H474V700H604V0H353L214 610H196V0Z"/><path transform="translate(399.96,84.00) scale(0.01400,-0.01400)" d="M308 -14Q236 -14 177.5 18.5Q119 51 84.5 113.5Q50 176 50 266V434Q50 569 126.0 641.5Q202 714 332 714Q461 714 531.5 645.5Q602 577 602 460V456H472V464Q472 501 456.5 531.0Q441 561 410.0 578.5Q379 596 332 596Q262 596 222.0 553.0Q182 510 182 436V264Q182 191 222.0 146.5Q262 102 334 102Q406 102 439.0 140.0Q472 178 472 236V246H306V358H602V0H480V67H462Q455 50 439.5 31.0Q424 12 393.0 -1.0Q362 -14 308 -14Z"/><path transform="translate(411.23,84.00) scale(0.01400,-0.01400)" d="M309 -14Q228 -14 166.0 15.0Q104 44 69.0 98.0Q34 152 34 228V256H164V228Q164 165 203.0 133.5Q242 102 309 102Q377 102 410.5 129.0Q444 156 444 198Q444 227 427.5 245.0Q411 263 379.5 274.5Q348 286 303 296L280 301Q208 317 156.5 341.5Q105 366 77.5 406.0Q50 446 50 510Q50 574 80.5 619.5Q111 665 166.5 689.5Q222 714 297 714Q372 714 430.5 688.5Q489 663 522.5 612.5Q556 562 556 486V456H426V486Q426 526 410.5 550.5Q395 575 366.0 586.5Q337 598 297 598Q237 598 208.5 575.5Q180 553 180 514Q180 488 193.5 470.0Q207 452 234.0 440.0Q261 428 303 419L326 414Q401 398 456.5 373.0Q512 348 543.0 307.0Q574 266 574 202Q574 138 541.5 89.5Q509 41 449.5 13.5Q390 -14 309 -14Z"/></g>

  <!-- wordmark -->
  <g fill="url(#wm)" filter="url(#soft)"><path transform="translate(70.00,176.00) scale(0.11800,-0.11800)" d="M110 0 40 496H165L209 85H227L291 496H493L557 85H575L619 496H744L674 0H465L401 411H383L319 0Z"/><path transform="translate(163.51,176.00) scale(0.11800,-0.11800)" d="M70 -200V496H194V436H212Q229 465 265.0 487.5Q301 510 368 510Q428 510 479.0 480.5Q530 451 561.0 394.0Q592 337 592 256V240Q592 159 561.0 102.0Q530 45 479.0 15.5Q428 -14 368 -14Q323 -14 292.5 -3.5Q262 7 243.5 23.5Q225 40 214 57H196V-200ZM330 96Q389 96 427.5 133.5Q466 171 466 243V253Q466 325 427.0 362.5Q388 400 330 400Q272 400 233.0 362.5Q194 325 194 253V243Q194 171 233.0 133.5Q272 96 330 96Z"/><path transform="translate(239.80,176.00) scale(0.11800,-0.11800)" d="M46 246V262Q46 340 77.0 395.5Q108 451 159.5 480.5Q211 510 272 510Q340 510 375.0 486.0Q410 462 426 436H444V496H568V-88Q568 -139 538.0 -169.5Q508 -200 458 -200H126V-90H414Q442 -90 442 -60V69H424Q414 53 396.0 36.5Q378 20 348.0 9.0Q318 -2 272 -2Q211 -2 159.5 27.5Q108 57 77.0 112.5Q46 168 46 246ZM308 108Q366 108 405.0 145.0Q444 182 444 249V259Q444 327 405.5 363.5Q367 400 308 400Q250 400 211.0 363.5Q172 327 172 259V249Q172 182 211.0 145.0Q250 108 308 108Z"/><path transform="translate(316.08,176.00) scale(0.11800,-0.11800)" d="M46 246V262Q46 340 77.0 395.5Q108 451 159.5 480.5Q211 510 272 510Q340 510 375.0 486.0Q410 462 426 436H444V496H568V-88Q568 -139 538.0 -169.5Q508 -200 458 -200H126V-90H414Q442 -90 442 -60V69H424Q414 53 396.0 36.5Q378 20 348.0 9.0Q318 -2 272 -2Q211 -2 159.5 27.5Q108 57 77.0 112.5Q46 168 46 246ZM308 108Q366 108 405.0 145.0Q444 182 444 249V259Q444 327 405.5 363.5Q367 400 308 400Q250 400 211.0 363.5Q172 327 172 259V249Q172 182 211.0 145.0Q250 108 308 108Z"/><path transform="translate(392.36,176.00) scale(0.11800,-0.11800)" d="M66 0V700H198V120H518V0Z"/><path transform="translate(457.32,176.00) scale(0.11800,-0.11800)" d="M224 -14Q171 -14 129.0 4.5Q87 23 62.5 58.5Q38 94 38 145Q38 196 62.5 230.5Q87 265 130.5 282.5Q174 300 230 300H366V328Q366 363 344.0 385.5Q322 408 274 408Q227 408 204.0 386.5Q181 365 174 331L58 370Q70 408 96.5 439.5Q123 471 167.5 490.5Q212 510 276 510Q374 510 431.0 461.0Q488 412 488 319V134Q488 104 516 104H556V0H472Q435 0 411.0 18.0Q387 36 387 66V67H368Q364 55 350.0 35.5Q336 16 306.0 1.0Q276 -14 224 -14ZM246 88Q299 88 332.5 117.5Q366 147 366 196V206H239Q204 206 184.0 191.0Q164 176 164 149Q164 122 185.0 105.0Q206 88 246 88Z"/><path transform="translate(526.52,176.00) scale(0.11800,-0.11800)" d="M368 -14Q301 -14 265.0 9.0Q229 32 212 60H194V0H70V700H196V439H214Q225 457 243.5 473.0Q262 489 292.5 499.5Q323 510 368 510Q428 510 479.0 480.5Q530 451 561.0 394.0Q592 337 592 256V240Q592 159 561.0 102.0Q530 45 479.0 15.5Q428 -14 368 -14ZM330 96Q388 96 427.0 133.5Q466 171 466 243V253Q466 325 427.5 362.5Q389 400 330 400Q272 400 233.0 362.5Q194 325 194 253V243Q194 171 233.0 133.5Q272 96 330 96Z"/><path transform="translate(602.81,176.00) scale(0.11800,-0.11800)" d="M276 -14Q179 -14 117.0 28.0Q55 70 42 148L158 178Q165 143 181.5 123.0Q198 103 222.5 94.5Q247 86 276 86Q320 86 341.0 101.5Q362 117 362 140Q362 163 342.0 175.5Q322 188 278 196L250 201Q198 211 155.0 228.5Q112 246 86.0 277.0Q60 308 60 357Q60 431 114.0 470.5Q168 510 256 510Q339 510 394.0 473.0Q449 436 466 376L349 340Q341 378 316.5 394.0Q292 410 256 410Q220 410 201.0 397.5Q182 385 182 363Q182 339 202.0 327.5Q222 316 256 310L284 305Q340 295 385.5 278.5Q431 262 457.5 231.5Q484 201 484 149Q484 71 427.5 28.5Q371 -14 276 -14Z"/></g>

  <!-- tagline -->
  <g fill="#8b93b8"><path transform="translate(73.00,222.00) scale(0.02100,-0.02100)" d="M46 0V116H138V584H46V700H406Q470 700 517.5 678.5Q565 657 591.5 617.5Q618 578 618 523V513Q618 465 600.0 434.5Q582 404 557.5 387.5Q533 371 511 364V346Q533 340 559.0 323.5Q585 307 603.5 276.0Q622 245 622 195V185Q622 127 595.0 85.5Q568 44 520.5 22.0Q473 0 410 0ZM270 120H394Q437 120 463.5 141.0Q490 162 490 201V211Q490 250 464.0 271.0Q438 292 394 292H270ZM270 412H392Q433 412 459.5 433.0Q486 454 486 491V501Q486 539 460.0 559.5Q434 580 392 580H270Z"/><path transform="translate(89.14,222.00) scale(0.02100,-0.02100)" d="M338 -14Q206 -14 128.0 58.5Q50 131 50 266V434Q50 569 128.0 641.5Q206 714 338 714Q470 714 548.0 641.5Q626 569 626 434V266Q626 131 548.0 58.5Q470 -14 338 -14ZM338 104Q412 104 453.0 147.0Q494 190 494 262V438Q494 510 453.0 553.0Q412 596 338 596Q265 596 223.5 553.0Q182 510 182 438V262Q182 190 223.5 147.0Q265 104 338 104Z"/><path transform="translate(105.54,222.00) scale(0.02100,-0.02100)" d="M338 -14Q206 -14 128.0 58.5Q50 131 50 266V434Q50 569 128.0 641.5Q206 714 338 714Q470 714 548.0 641.5Q626 569 626 434V266Q626 131 548.0 58.5Q470 -14 338 -14ZM338 104Q412 104 453.0 147.0Q494 190 494 262V438Q494 510 453.0 553.0Q412 596 338 596Q265 596 223.5 553.0Q182 510 182 438V262Q182 190 223.5 147.0Q265 104 338 104Z"/><path transform="translate(121.94,222.00) scale(0.02100,-0.02100)" d="M228 0V580H24V700H564V580H360V0Z"/><path transform="translate(136.48,222.00) scale(0.02100,-0.02100)" d="M309 -14Q228 -14 166.0 15.0Q104 44 69.0 98.0Q34 152 34 228V256H164V228Q164 165 203.0 133.5Q242 102 309 102Q377 102 410.5 129.0Q444 156 444 198Q444 227 427.5 245.0Q411 263 379.5 274.5Q348 286 303 296L280 301Q208 317 156.5 341.5Q105 366 77.5 406.0Q50 446 50 510Q50 574 80.5 619.5Q111 665 166.5 689.5Q222 714 297 714Q372 714 430.5 688.5Q489 663 522.5 612.5Q556 562 556 486V456H426V486Q426 526 410.5 550.5Q395 575 366.0 586.5Q337 598 297 598Q237 598 208.5 575.5Q180 553 180 514Q180 488 193.5 470.0Q207 452 234.0 440.0Q261 428 303 419L326 414Q401 398 456.5 373.0Q512 348 543.0 307.0Q574 266 574 202Q574 138 541.5 89.5Q509 41 449.5 13.5Q390 -14 309 -14Z"/><path transform="translate(151.41,222.00) scale(0.02100,-0.02100)" d="M228 0V580H24V700H564V580H360V0Z"/><path transform="translate(165.96,222.00) scale(0.02100,-0.02100)" d="M66 0V700H370Q436 700 485.0 677.0Q534 654 561.0 612.0Q588 570 588 513V501Q588 438 558.0 399.0Q528 360 484 342V324Q524 322 546.0 296.5Q568 271 568 229V0H436V210Q436 234 423.5 249.0Q411 264 382 264H198V0ZM198 384H356Q403 384 429.5 409.5Q456 435 456 477V487Q456 529 430.0 554.5Q404 580 356 580H198Z"/><path transform="translate(181.43,222.00) scale(0.02100,-0.02100)" d="M18 0 202 700H432L616 0H480L442 154H192L154 0ZM223 276H411L326 617H308Z"/><path transform="translate(196.94,222.00) scale(0.02100,-0.02100)" d="M66 0V700H354Q420 700 470.5 673.5Q521 647 549.5 599.0Q578 551 578 485V471Q578 406 548.5 357.5Q519 309 468.5 282.5Q418 256 354 256H198V0ZM198 376H341Q388 376 417.0 402.0Q446 428 446 473V483Q446 528 417.0 554.0Q388 580 341 580H198Z"/><path transform="translate(211.83,222.00) scale(0.02100,-0.02100)" d="M66 0V700H354Q420 700 470.5 673.5Q521 647 549.5 599.0Q578 551 578 485V471Q578 406 548.5 357.5Q519 309 468.5 282.5Q418 256 354 256H198V0ZM198 376H341Q388 376 417.0 402.0Q446 428 446 473V483Q446 528 417.0 554.0Q388 580 341 580H198Z"/><path transform="translate(226.71,222.00) scale(0.02100,-0.02100)" d="M66 0V700H516V580H198V413H488V293H198V120H522V0Z"/><path transform="translate(240.55,222.00) scale(0.02100,-0.02100)" d="M66 0V700H370Q436 700 485.0 677.0Q534 654 561.0 612.0Q588 570 588 513V501Q588 438 558.0 399.0Q528 360 484 342V324Q524 322 546.0 296.5Q568 271 568 229V0H436V210Q436 234 423.5 249.0Q411 264 382 264H198V0ZM198 384H356Q403 384 429.5 409.5Q456 435 456 477V487Q456 529 430.0 554.5Q404 580 356 580H198Z"/><path transform="translate(271.09,222.00) scale(0.02100,-0.02100)" d="M110 191Q69 191 41.5 217.5Q14 244 14 286Q14 328 41.5 354.5Q69 381 110 381Q150 381 177.0 354.5Q204 328 204 286Q204 244 177.0 217.5Q150 191 110 191Z"/><path transform="translate(292.93,222.00) scale(0.02100,-0.02100)" d="M66 0V700H198V120H518V0Z"/><path transform="translate(306.51,222.00) scale(0.02100,-0.02100)" d="M338 -14Q206 -14 128.0 58.5Q50 131 50 266V434Q50 569 128.0 641.5Q206 714 338 714Q470 714 548.0 641.5Q626 569 626 434V266Q626 131 548.0 58.5Q470 -14 338 -14ZM338 104Q412 104 453.0 147.0Q494 190 494 262V438Q494 510 453.0 553.0Q412 596 338 596Q265 596 223.5 553.0Q182 510 182 438V262Q182 190 223.5 147.0Q265 104 338 104Z"/><path transform="translate(322.91,222.00) scale(0.02100,-0.02100)" d="M332 -14Q202 -14 126.0 58.5Q50 131 50 266V434Q50 569 126.0 641.5Q202 714 332 714Q461 714 531.5 643.5Q602 573 602 450V444H472V454Q472 516 437.5 556.0Q403 596 332 596Q262 596 222.0 553.0Q182 510 182 436V264Q182 191 222.0 147.5Q262 104 332 104Q403 104 437.5 144.5Q472 185 472 246V264H602V250Q602 127 531.5 56.5Q461 -14 332 -14Z"/><path transform="translate(338.63,222.00) scale(0.02100,-0.02100)" d="M18 0 202 700H432L616 0H480L442 154H192L154 0ZM223 276H411L326 617H308Z"/><path transform="translate(354.15,222.00) scale(0.02100,-0.02100)" d="M66 0V700H198V120H518V0Z"/><path transform="translate(367.73,222.00) scale(0.02100,-0.02100)" d="M68 198V312H364V198Z"/><path transform="translate(379.00,222.00) scale(0.02100,-0.02100)" d="M66 0V700H506V580H198V411H482V291H198V0Z"/><path transform="translate(392.42,222.00) scale(0.02100,-0.02100)" d="M66 0V700H198V0Z"/><path transform="translate(400.16,222.00) scale(0.02100,-0.02100)" d="M66 0V700H370Q436 700 485.0 677.0Q534 654 561.0 612.0Q588 570 588 513V501Q588 438 558.0 399.0Q528 360 484 342V324Q524 322 546.0 296.5Q568 271 568 229V0H436V210Q436 234 423.5 249.0Q411 264 382 264H198V0ZM198 384H356Q403 384 429.5 409.5Q456 435 456 477V487Q456 529 430.0 554.5Q404 580 356 580H198Z"/><path transform="translate(415.63,222.00) scale(0.02100,-0.02100)" d="M309 -14Q228 -14 166.0 15.0Q104 44 69.0 98.0Q34 152 34 228V256H164V228Q164 165 203.0 133.5Q242 102 309 102Q377 102 410.5 129.0Q444 156 444 198Q444 227 427.5 245.0Q411 263 379.5 274.5Q348 286 303 296L280 301Q208 317 156.5 341.5Q105 366 77.5 406.0Q50 446 50 510Q50 574 80.5 619.5Q111 665 166.5 689.5Q222 714 297 714Q372 714 430.5 688.5Q489 663 522.5 612.5Q556 562 556 486V456H426V486Q426 526 410.5 550.5Q395 575 366.0 586.5Q337 598 297 598Q237 598 208.5 575.5Q180 553 180 514Q180 488 193.5 470.0Q207 452 234.0 440.0Q261 428 303 419L326 414Q401 398 456.5 373.0Q512 348 543.0 307.0Q574 266 574 202Q574 138 541.5 89.5Q509 41 449.5 13.5Q390 -14 309 -14Z"/><path transform="translate(430.56,222.00) scale(0.02100,-0.02100)" d="M228 0V580H24V700H564V580H360V0Z"/><path transform="translate(452.64,222.00) scale(0.02100,-0.02100)" d="M309 -14Q228 -14 166.0 15.0Q104 44 69.0 98.0Q34 152 34 228V256H164V228Q164 165 203.0 133.5Q242 102 309 102Q377 102 410.5 129.0Q444 156 444 198Q444 227 427.5 245.0Q411 263 379.5 274.5Q348 286 303 296L280 301Q208 317 156.5 341.5Q105 366 77.5 406.0Q50 446 50 510Q50 574 80.5 619.5Q111 665 166.5 689.5Q222 714 297 714Q372 714 430.5 688.5Q489 663 522.5 612.5Q556 562 556 486V456H426V486Q426 526 410.5 550.5Q395 575 366.0 586.5Q337 598 297 598Q237 598 208.5 575.5Q180 553 180 514Q180 488 193.5 470.0Q207 452 234.0 440.0Q261 428 303 419L326 414Q401 398 456.5 373.0Q512 348 543.0 307.0Q574 266 574 202Q574 138 541.5 89.5Q509 41 449.5 13.5Q390 -14 309 -14Z"/><path transform="translate(467.57,222.00) scale(0.02100,-0.02100)" d="M338 -14Q206 -14 128.0 58.5Q50 131 50 266V434Q50 569 128.0 641.5Q206 714 338 714Q470 714 548.0 641.5Q626 569 626 434V266Q626 131 548.0 58.5Q470 -14 338 -14ZM338 104Q412 104 453.0 147.0Q494 190 494 262V438Q494 510 453.0 553.0Q412 596 338 596Q265 596 223.5 553.0Q182 510 182 438V262Q182 190 223.5 147.0Q265 104 338 104Z"/><path transform="translate(483.96,222.00) scale(0.02100,-0.02100)" d="M66 0V700H506V580H198V411H482V291H198V0Z"/><path transform="translate(497.38,222.00) scale(0.02100,-0.02100)" d="M228 0V580H24V700H564V580H360V0Z"/><path transform="translate(511.92,222.00) scale(0.02100,-0.02100)" d="M122 0 30 700H161L229 92H247L335 700H563L651 92H669L737 700H868L776 0H548L458 622H440L350 0Z"/><path transform="translate(532.98,222.00) scale(0.02100,-0.02100)" d="M18 0 202 700H432L616 0H480L442 154H192L154 0ZM223 276H411L326 617H308Z"/><path transform="translate(548.50,222.00) scale(0.02100,-0.02100)" d="M66 0V700H370Q436 700 485.0 677.0Q534 654 561.0 612.0Q588 570 588 513V501Q588 438 558.0 399.0Q528 360 484 342V324Q524 322 546.0 296.5Q568 271 568 229V0H436V210Q436 234 423.5 249.0Q411 264 382 264H198V0ZM198 384H356Q403 384 429.5 409.5Q456 435 456 477V487Q456 529 430.0 554.5Q404 580 356 580H198Z"/><path transform="translate(563.97,222.00) scale(0.02100,-0.02100)" d="M66 0V700H516V580H198V413H488V293H198V120H522V0Z"/><path transform="translate(592.87,222.00) scale(0.02100,-0.02100)" d="M110 191Q69 191 41.5 217.5Q14 244 14 286Q14 328 41.5 354.5Q69 381 110 381Q150 381 177.0 354.5Q204 328 204 286Q204 244 177.0 217.5Q150 191 110 191Z"/><path transform="translate(614.72,222.00) scale(0.02100,-0.02100)" d="M66 0V700H317L456 90H474V700H604V0H353L214 610H196V0Z"/><path transform="translate(630.99,222.00) scale(0.02100,-0.02100)" d="M66 0V700H516V580H198V413H488V293H198V120H522V0Z"/><path transform="translate(644.82,222.00) scale(0.02100,-0.02100)" d="M122 0 30 700H161L229 92H247L335 700H563L651 92H669L737 700H868L776 0H548L458 622H440L350 0Z"/><path transform="translate(673.41,222.00) scale(0.02100,-0.02100)" d="M246 0V241L8 700H155L303 400H321L469 700H616L378 241V0Z"/><path transform="translate(688.72,222.00) scale(0.02100,-0.02100)" d="M338 -14Q206 -14 128.0 58.5Q50 131 50 266V434Q50 569 128.0 641.5Q206 714 338 714Q470 714 548.0 641.5Q626 569 626 434V266Q626 131 548.0 58.5Q470 -14 338 -14ZM338 104Q412 104 453.0 147.0Q494 190 494 262V438Q494 510 453.0 553.0Q412 596 338 596Q265 596 223.5 553.0Q182 510 182 438V262Q182 190 223.5 147.0Q265 104 338 104Z"/><path transform="translate(705.11,222.00) scale(0.02100,-0.02100)" d="M66 0V700H370Q436 700 485.0 677.0Q534 654 561.0 612.0Q588 570 588 513V501Q588 438 558.0 399.0Q528 360 484 342V324Q524 322 546.0 296.5Q568 271 568 229V0H436V210Q436 234 423.5 249.0Q411 264 382 264H198V0ZM198 384H356Q403 384 429.5 409.5Q456 435 456 477V487Q456 529 430.0 554.5Q404 580 356 580H198Z"/><path transform="translate(720.58,222.00) scale(0.02100,-0.02100)" d="M66 0V700H198V422H216L443 700H612L320 355L622 0H448L216 284H198V0Z"/></g>

  <!-- HUD coords -->
  <g fill="#22d3ee" opacity="0.7"><path transform="translate(980.00,84.00) scale(0.01300,-0.01300)" d="M370 0V142H26V290L268 700H498V256H614V142H498V0ZM148 256H370V618H352L148 272Z"/><path transform="translate(989.77,84.00) scale(0.01300,-0.01300)" d="M324 -14Q200 -14 125.0 54.5Q50 123 50 262V438Q50 573 125.0 643.5Q200 714 324 714Q449 714 523.5 643.5Q598 573 598 438V262Q598 123 523.5 54.5Q449 -14 324 -14ZM324 100Q399 100 434.5 141.0Q470 182 470 258V444Q470 521 430.5 560.5Q391 600 324 600Q255 600 216.5 559.0Q178 518 178 444V258Q178 179 214.5 139.5Q251 100 324 100Z"/><path transform="translate(999.69,84.00) scale(0.01300,-0.01300)" d="M150 -14Q109 -14 81.5 12.5Q54 39 54 81Q54 123 81.5 149.5Q109 176 150 176Q190 176 217.0 149.5Q244 123 244 81Q244 39 217.0 12.5Q190 -14 150 -14Z"/><path transform="translate(1005.07,84.00) scale(0.01300,-0.01300)" d="M131 0V26Q131 65 137.0 92.5Q143 120 163 155L398 570V586H26V700H530V548L282 105Q269 82 264.0 64.0Q259 46 259 20V0Z"/><path transform="translate(1013.77,84.00) scale(0.01300,-0.01300)" d="M258 0V606H240L146 384H12L155 700H386V0Z"/><path transform="translate(1021.14,84.00) scale(0.01300,-0.01300)" d="M42 0V84Q42 157 66.0 205.5Q90 254 135.5 285.5Q181 317 247 337L314 358Q351 370 376.0 387.5Q401 405 414.5 430.0Q428 455 428 487V491Q428 541 394.0 570.5Q360 600 301 600Q243 600 207.5 568.5Q172 537 172 478V460H44V476Q44 552 78.0 605.0Q112 658 170.5 686.0Q229 714 301 714Q373 714 431.0 686.5Q489 659 522.5 609.5Q556 560 556 493V483Q556 416 528.5 369.5Q501 323 454.0 293.5Q407 264 347 245L283 225Q240 212 216.0 196.5Q192 181 182.5 162.5Q173 144 173 118V114H550V0Z"/><path transform="translate(1030.37,84.00) scale(0.01300,-0.01300)" d="M300 -14Q220 -14 158.5 10.0Q97 34 62.5 79.5Q28 125 28 187V199Q28 247 45.0 278.5Q62 310 87.5 328.0Q113 346 136 353V371Q113 379 90.0 397.0Q67 415 52.5 445.0Q38 475 38 517V529Q38 584 70.5 625.5Q103 667 162.0 690.5Q221 714 300 714Q379 714 438.0 690.5Q497 667 529.5 625.5Q562 584 562 529V517Q562 475 547.5 445.0Q533 415 510.5 397.0Q488 379 464 371V353Q488 346 513.0 328.0Q538 310 555.0 278.5Q572 247 572 199V187Q572 125 537.5 79.5Q503 34 441.5 10.0Q380 -14 300 -14ZM300 100Q369 100 406.5 126.5Q444 153 444 197V205Q444 249 407.5 275.5Q371 302 300 302Q230 302 193.0 275.5Q156 249 156 205V197Q156 153 193.5 126.5Q231 100 300 100ZM300 416Q364 416 399.0 439.0Q434 462 434 504V512Q434 554 398.0 577.0Q362 600 300 600Q238 600 202.0 577.0Q166 554 166 512V504Q166 462 201.0 439.0Q236 416 300 416Z"/><path transform="translate(1044.47,84.00) scale(0.01300,-0.01300)" d="M66 0V700H317L456 90H474V700H604V0H353L214 610H196V0Z"/><path transform="translate(980.00,104.00) scale(0.01300,-0.01300)" d="M131 0V26Q131 65 137.0 92.5Q143 120 163 155L398 570V586H26V700H530V548L282 105Q269 82 264.0 64.0Q259 46 259 20V0Z"/><path transform="translate(988.70,104.00) scale(0.01300,-0.01300)" d="M370 0V142H26V290L268 700H498V256H614V142H498V0ZM148 256H370V618H352L148 272Z"/><path transform="translate(998.47,104.00) scale(0.01300,-0.01300)" d="M150 -14Q109 -14 81.5 12.5Q54 39 54 81Q54 123 81.5 149.5Q109 176 150 176Q190 176 217.0 149.5Q244 123 244 81Q244 39 217.0 12.5Q190 -14 150 -14Z"/><path transform="translate(1003.84,104.00) scale(0.01300,-0.01300)" d="M324 -14Q200 -14 125.0 54.5Q50 123 50 262V438Q50 573 125.0 643.5Q200 714 324 714Q449 714 523.5 643.5Q598 573 598 438V262Q598 123 523.5 54.5Q449 -14 324 -14ZM324 100Q399 100 434.5 141.0Q470 182 470 258V444Q470 521 430.5 560.5Q391 600 324 600Q255 600 216.5 559.0Q178 518 178 444V258Q178 179 214.5 139.5Q251 100 324 100Z"/><path transform="translate(1013.77,104.00) scale(0.01300,-0.01300)" d="M324 -14Q200 -14 125.0 54.5Q50 123 50 262V438Q50 573 125.0 643.5Q200 714 324 714Q449 714 523.5 643.5Q598 573 598 438V262Q598 123 523.5 54.5Q449 -14 324 -14ZM324 100Q399 100 434.5 141.0Q470 182 470 258V444Q470 521 430.5 560.5Q391 600 324 600Q255 600 216.5 559.0Q178 518 178 444V258Q178 179 214.5 139.5Q251 100 324 100Z"/><path transform="translate(1023.69,104.00) scale(0.01300,-0.01300)" d="M312 -14Q232 -14 173.0 16.0Q114 46 82.0 99.0Q50 152 50 221V460Q50 545 84.5 601.5Q119 658 179.5 686.0Q240 714 318 714Q396 714 453.5 688.0Q511 662 542.5 613.0Q574 564 574 496H444Q444 538 415.0 569.0Q386 600 318 600Q251 600 214.5 565.0Q178 530 178 468V396H196Q213 416 248.0 434.0Q283 452 350 452Q411 452 462.5 426.0Q514 400 546.0 350.5Q578 301 578 231V219Q578 150 545.0 97.5Q512 45 452.0 15.5Q392 -14 312 -14ZM314 100Q377 100 413.5 133.0Q450 166 450 221V229Q450 266 433.5 293.0Q417 320 386.5 335.0Q356 350 314 350Q273 350 242.0 335.0Q211 320 194.5 293.0Q178 266 178 229V221Q178 166 214.5 133.0Q251 100 314 100Z"/><path transform="translate(1033.23,104.00) scale(0.01300,-0.01300)" d="M324 -14Q200 -14 125.0 54.5Q50 123 50 262V438Q50 573 125.0 643.5Q200 714 324 714Q449 714 523.5 643.5Q598 573 598 438V262Q598 123 523.5 54.5Q449 -14 324 -14ZM324 100Q399 100 434.5 141.0Q470 182 470 258V444Q470 521 430.5 560.5Q391 600 324 600Q255 600 216.5 559.0Q178 518 178 444V258Q178 179 214.5 139.5Q251 100 324 100Z"/><path transform="translate(1047.95,104.00) scale(0.01300,-0.01300)" d="M122 0 30 700H161L229 92H247L335 700H563L651 92H669L737 700H868L776 0H548L458 622H440L350 0Z"/></g>
  <g stroke="#22d3ee" opacity="0.5"><line x1="965" y1="76" x2="965" y2="110" stroke-width="2"/></g>

  <!-- corner ticks -->
  <g stroke="#7c3aed" stroke-width="2" opacity="0.8" fill="none">
    <path d="M24 24 h26 M24 24 v26"/>
    <path d="M1176 276 h-26 M1176 276 v-26"/>
  </g>
  <rect x="1.5" y="1.5" width="1197" height="297" rx="19" fill="none" stroke="#232a4a" stroke-width="2"/>
</g>
</svg>