<svg xmlns="http://www.w3.org/2000/svg" viewBox="0 0 1200 440" width="100%" role="img" aria-label="wpggLabs — i build tools for an audience of one.">
<g fill="#f2f2f2"><path transform="translate(306.96,210.00) scale(0.11000,-0.11000)" d="M168 0 58 486H120L216 40H228L353 486H455L580 40H592L688 486H750L640 0H535L410 446H398L273 0Z"/><path transform="translate(399.84,210.00) scale(0.11000,-0.11000)" d="M88 -200V486H146V397H158Q179 437 223.5 468.5Q268 500 348 500Q413 500 466.0 469.5Q519 439 550.5 383.0Q582 327 582 249V237Q582 160 551.0 103.5Q520 47 467.0 16.5Q414 -14 348 -14Q295 -14 257.5 0.5Q220 15 196.5 38.0Q173 61 160 85H148V-200ZM334 40Q417 40 468.5 93.0Q520 146 520 239V247Q520 340 468.5 393.0Q417 446 334 446Q252 446 200.0 393.0Q148 340 148 247V239Q148 146 200.0 93.0Q252 40 334 40Z"/><path transform="translate(474.90,210.00) scale(0.11000,-0.11000)" d="M64 241V253Q64 330 95.5 385.0Q127 440 180.0 470.0Q233 500 298 500Q378 500 422.5 468.5Q467 437 488 397H500V486H556V-124Q556 -160 537.0 -180.0Q518 -200 479 -200H147V-146H467Q498 -146 498 -116V93H486Q473 69 449.5 46.0Q426 23 389.0 8.5Q352 -6 298 -6Q233 -6 179.5 24.0Q126 54 95.0 109.5Q64 165 64 241ZM312 48Q395 48 446.5 100.0Q498 152 498 243V251Q498 343 446.5 394.5Q395 446 312 446Q230 446 178.0 394.5Q126 343 126 251V243Q126 152 178.0 100.0Q230 48 312 48Z"/><path transform="translate(549.75,210.00) scale(0.11000,-0.11000)" d="M64 241V253Q64 330 95.5 385.0Q127 440 180.0 470.0Q233 500 298 500Q378 500 422.5 468.5Q467 437 488 397H500V486H556V-124Q556 -160 537.0 -180.0Q518 -200 479 -200H147V-146H467Q498 -146 498 -116V93H486Q473 69 449.5 46.0Q426 23 389.0 8.5Q352 -6 298 -6Q233 -6 179.5 24.0Q126 54 95.0 109.5Q64 165 64 241ZM312 48Q395 48 446.5 100.0Q498 152 498 243V251Q498 343 446.5 394.5Q395 446 312 446Q230 446 178.0 394.5Q126 343 126 251V243Q126 152 178.0 100.0Q230 48 312 48Z"/><path transform="translate(624.59,210.00) scale(0.11000,-0.11000)" d="M86 0V700H150V58H518V0Z"/><path transform="translate(688.75,210.00) scale(0.11000,-0.11000)" d="M237 -14Q186 -14 144.5 3.5Q103 21 79.0 55.0Q55 89 55 137Q55 186 79.0 218.0Q103 250 144.0 266.0Q185 282 235 282H413V321Q413 380 379.0 413.0Q345 446 280 446Q216 446 178.5 414.5Q141 383 128 330L70 347Q82 390 108.0 424.5Q134 459 177.0 479.5Q220 500 280 500Q372 500 422.5 452.0Q473 404 473 318V82Q473 52 501 52H548V0H484Q453 0 435.0 18.5Q417 37 417 69V76H407Q394 54 373.5 33.0Q353 12 320.0 -1.0Q287 -14 237 -14ZM241 40Q318 40 365.5 86.5Q413 133 413 218V230H236Q184 230 149.5 207.5Q115 185 115 138Q115 91 150.5 65.5Q186 40 241 40Z"/><path transform="translate(755.89,210.00) scale(0.11000,-0.11000)" d="M348 -14Q268 -14 223.5 17.5Q179 49 158 89H146V0H88V700H148V401H160Q173 426 196.5 448.5Q220 471 257.5 485.5Q295 500 348 500Q414 500 467.0 469.5Q520 439 551.0 382.5Q582 326 582 249V237Q582 160 550.5 103.5Q519 47 466.0 16.5Q413 -14 348 -14ZM334 40Q417 40 468.5 93.0Q520 146 520 239V247Q520 340 468.5 393.0Q417 446 334 446Q252 446 200.0 393.0Q148 340 148 247V239Q148 146 200.0 93.0Q252 40 334 40Z"/><path transform="translate(830.95,210.00) scale(0.11000,-0.11000)" d="M281 -14Q193 -14 130.5 28.0Q68 70 54 167L113 178Q121 125 145.5 94.5Q170 64 205.5 51.0Q241 38 281 38Q341 38 377.5 62.5Q414 87 414 130Q414 174 379.5 191.0Q345 208 288 218L242 226Q196 234 159.0 250.5Q122 267 100.5 295.0Q79 323 79 365Q79 428 128.5 464.0Q178 500 260 500Q343 500 393.5 462.5Q444 425 457 354L401 342Q391 400 353.5 424.0Q316 448 260 448Q205 448 172.0 427.0Q139 406 139 365Q139 325 169.0 306.5Q199 288 251 279L297 271Q347 263 387.0 247.5Q427 232 450.5 204.0Q474 176 474 130Q474 61 422.0 23.5Q370 -14 281 -14Z"/></g>
<line x1="568.0" y1="252" x2="632.0" y2="252" stroke="#6f6f6f" stroke-width="1.5"/>
<g fill="#b8b8b8"><path transform="translate(359.79,312.00) scale(0.02700,-0.02700)" d="M88 0V486H148V0ZM118 570Q96 570 81.0 585.0Q66 600 66 622Q66 645 81.0 659.5Q96 674 118 674Q141 674 155.5 659.5Q170 645 170 622Q170 600 155.5 585.0Q141 570 118 570Z"/><path transform="translate(374.13,312.00) scale(0.02700,-0.02700)" d="M348 -14Q268 -14 223.5 17.5Q179 49 158 89H146V0H88V700H148V401H160Q173 426 196.5 448.5Q220 471 257.5 485.5Q295 500 348 500Q414 500 467.0 469.5Q520 439 551.0 382.5Q582 326 582 249V237Q582 160 550.5 103.5Q519 47 466.0 16.5Q413 -14 348 -14ZM334 40Q417 40 468.5 93.0Q520 146 520 239V247Q520 340 468.5 393.0Q417 446 334 446Q252 446 200.0 393.0Q148 340 148 247V239Q148 146 200.0 93.0Q252 40 334 40Z"/><path transform="translate(392.07,312.00) scale(0.02700,-0.02700)" d="M275 -10Q223 -10 178.5 12.0Q134 34 107.5 78.5Q81 123 81 190V486H141V194Q141 115 181.0 79.5Q221 44 288 44Q363 44 413.0 93.5Q463 143 463 243V486H523V0H465V90H453Q435 51 394.0 20.5Q353 -10 275 -10Z"/><path transform="translate(409.07,312.00) scale(0.02700,-0.02700)" d="M88 0V486H148V0ZM118 570Q96 570 81.0 585.0Q66 600 66 622Q66 645 81.0 659.5Q96 674 118 674Q141 674 155.5 659.5Q170 645 170 622Q170 600 155.5 585.0Q141 570 118 570Z"/><path transform="translate(415.94,312.00) scale(0.02700,-0.02700)" d="M88 0V700H148V0Z"/><path transform="translate(422.81,312.00) scale(0.02700,-0.02700)" d="M298 -14Q233 -14 180.0 16.5Q127 47 95.5 103.5Q64 160 64 237V249Q64 326 95.0 382.5Q126 439 179.5 469.5Q233 500 298 500Q352 500 389.0 485.5Q426 471 449.5 448.5Q473 426 486 401H498V700H558V0H500V89H488Q467 49 422.5 17.5Q378 -14 298 -14ZM312 40Q395 40 446.5 93.0Q498 146 498 239V247Q498 340 446.5 393.0Q395 446 312 446Q230 446 178.0 393.0Q126 340 126 247V239Q126 146 178.0 93.0Q230 40 312 40Z"/><path transform="translate(448.22,312.00) scale(0.02700,-0.02700)" d="M264 0Q225 0 205.5 20.0Q186 40 186 76V432H30V486H186V668H246V486H416V432H246V84Q246 54 276 54H390V0Z"/><path transform="translate(461.19,312.00) scale(0.02700,-0.02700)" d="M310 -14Q236 -14 180.5 17.5Q125 49 94.5 105.5Q64 162 64 237V249Q64 324 94.5 380.5Q125 437 180.5 468.5Q236 500 310 500Q384 500 439.5 468.5Q495 437 525.5 380.5Q556 324 556 249V237Q556 162 525.5 105.5Q495 49 439.5 17.5Q384 -14 310 -14ZM310 40Q396 40 446.0 94.5Q496 149 496 239V247Q496 337 446.0 391.5Q396 446 310 446Q225 446 174.5 391.5Q124 337 124 247V239Q124 149 174.5 94.5Q225 40 310 40Z"/><path transform="translate(478.44,312.00) scale(0.02700,-0.02700)" d="M310 -14Q236 -14 180.5 17.5Q125 49 94.5 105.5Q64 162 64 237V249Q64 324 94.5 380.5Q125 437 180.5 468.5Q236 500 310 500Q384 500 439.5 468.5Q495 437 525.5 380.5Q556 324 556 249V237Q556 162 525.5 105.5Q495 49 439.5 17.5Q384 -14 310 -14ZM310 40Q396 40 446.0 94.5Q496 149 496 239V247Q496 337 446.0 391.5Q396 446 310 446Q225 446 174.5 391.5Q124 337 124 247V239Q124 149 174.5 94.5Q225 40 310 40Z"/><path transform="translate(495.68,312.00) scale(0.02700,-0.02700)" d="M88 0V700H148V0Z"/><path transform="translate(502.55,312.00) scale(0.02700,-0.02700)" d="M281 -14Q193 -14 130.5 28.0Q68 70 54 167L113 178Q121 125 145.5 94.5Q170 64 205.5 51.0Q241 38 281 38Q341 38 377.5 62.5Q414 87 414 130Q414 174 379.5 191.0Q345 208 288 218L242 226Q196 234 159.0 250.5Q122 267 100.5 295.0Q79 323 79 365Q79 428 128.5 464.0Q178 500 260 500Q343 500 393.5 462.5Q444 425 457 354L401 342Q391 400 353.5 424.0Q316 448 260 448Q205 448 172.0 427.0Q139 406 139 365Q139 325 169.0 306.5Q199 288 251 279L297 271Q347 263 387.0 247.5Q427 232 450.5 204.0Q474 176 474 130Q474 61 422.0 23.5Q370 -14 281 -14Z"/><path transform="translate(524.77,312.00) scale(0.02700,-0.02700)" d="M190 0V432H30V486H190V624Q190 660 209.5 680.0Q229 700 268 700H388V646H280Q250 646 250 616V486H414V432H250V0Z"/><path transform="translate(537.26,312.00) scale(0.02700,-0.02700)" d="M310 -14Q236 -14 180.5 17.5Q125 49 94.5 105.5Q64 162 64 237V249Q64 324 94.5 380.5Q125 437 180.5 468.5Q236 500 310 500Q384 500 439.5 468.5Q495 437 525.5 380.5Q556 324 556 249V237Q556 162 525.5 105.5Q495 49 439.5 17.5Q384 -14 310 -14ZM310 40Q396 40 446.0 94.5Q496 149 496 239V247Q496 337 446.0 391.5Q396 446 310 446Q225 446 174.5 391.5Q124 337 124 247V239Q124 149 174.5 94.5Q225 40 310 40Z"/><path transform="translate(554.50,312.00) scale(0.02700,-0.02700)" d="M88 0V486H146V425H158Q172 458 199.5 473.0Q227 488 276 488H333V432H269Q214 432 181.0 401.0Q148 370 148 304V0Z"/><path transform="translate(572.43,312.00) scale(0.02700,-0.02700)" d="M237 -14Q186 -14 144.5 3.5Q103 21 79.0 55.0Q55 89 55 137Q55 186 79.0 218.0Q103 250 144.0 266.0Q185 282 235 282H413V321Q413 380 379.0 413.0Q345 446 280 446Q216 446 178.5 414.5Q141 383 128 330L70 347Q82 390 108.0 424.5Q134 459 177.0 479.5Q220 500 280 500Q372 500 422.5 452.0Q473 404 473 318V82Q473 52 501 52H548V0H484Q453 0 435.0 18.5Q417 37 417 69V76H407Q394 54 373.5 33.0Q353 12 320.0 -1.0Q287 -14 237 -14ZM241 40Q318 40 365.5 86.5Q413 133 413 218V230H236Q184 230 149.5 207.5Q115 185 115 138Q115 91 150.5 65.5Q186 40 241 40Z"/><path transform="translate(588.42,312.00) scale(0.02700,-0.02700)" d="M88 0V486H146V396H158Q176 435 217.0 465.5Q258 496 336 496Q389 496 433.0 474.0Q477 452 503.5 407.5Q530 363 530 296V0H470V292Q470 372 430.0 407.0Q390 442 323 442Q248 442 198.0 392.5Q148 343 148 243V0Z"/><path transform="translate(612.91,312.00) scale(0.02700,-0.02700)" d="M237 -14Q186 -14 144.5 3.5Q103 21 79.0 55.0Q55 89 55 137Q55 186 79.0 218.0Q103 250 144.0 266.0Q185 282 235 282H413V321Q413 380 379.0 413.0Q345 446 280 446Q216 446 178.5 414.5Q141 383 128 330L70 347Q82 390 108.0 424.5Q134 459 177.0 479.5Q220 500 280 500Q372 500 422.5 452.0Q473 404 473 318V82Q473 52 501 52H548V0H484Q453 0 435.0 18.5Q417 37 417 69V76H407Q394 54 373.5 33.0Q353 12 320.0 -1.0Q287 -14 237 -14ZM241 40Q318 40 365.5 86.5Q413 133 413 218V230H236Q184 230 149.5 207.5Q115 185 115 138Q115 91 150.5 65.5Q186 40 241 40Z"/><path transform="translate(628.91,312.00) scale(0.02700,-0.02700)" d="M275 -10Q223 -10 178.5 12.0Q134 34 107.5 78.5Q81 123 81 190V486H141V194Q141 115 181.0 79.5Q221 44 288 44Q363 44 413.0 93.5Q463 143 463 243V486H523V0H465V90H453Q435 51 394.0 20.5Q353 -10 275 -10Z"/><path transform="translate(645.91,312.00) scale(0.02700,-0.02700)" d="M298 -14Q233 -14 180.0 16.5Q127 47 95.5 103.5Q64 160 64 237V249Q64 326 95.0 382.5Q126 439 179.5 469.5Q233 500 298 500Q352 500 389.0 485.5Q426 471 449.5 448.5Q473 426 486 401H498V700H558V0H500V89H488Q467 49 422.5 17.5Q378 -14 298 -14ZM312 40Q395 40 446.5 93.0Q498 146 498 239V247Q498 340 446.5 393.0Q395 446 312 446Q230 446 178.0 393.0Q126 340 126 247V239Q126 146 178.0 93.0Q230 40 312 40Z"/><path transform="translate(663.85,312.00) scale(0.02700,-0.02700)" d="M88 0V486H148V0ZM118 570Q96 570 81.0 585.0Q66 600 66 622Q66 645 81.0 659.5Q96 674 118 674Q141 674 155.5 659.5Q170 645 170 622Q170 600 155.5 585.0Q141 570 118 570Z"/><path transform="translate(670.72,312.00) scale(0.02700,-0.02700)" d="M312 -14Q237 -14 181.5 17.5Q126 49 95.0 106.0Q64 163 64 237V249Q64 324 95.0 380.5Q126 437 180.5 468.5Q235 500 305 500Q373 500 425.5 471.5Q478 443 508.0 389.5Q538 336 538 262V230H124Q127 139 179.5 89.5Q232 40 312 40Q380 40 417.5 71.0Q455 102 475 147L529 123Q514 90 487.5 58.5Q461 27 419.0 6.5Q377 -14 312 -14ZM125 282H477Q473 361 426.0 403.5Q379 446 305 446Q232 446 184.0 403.5Q136 361 125 282Z"/><path transform="translate(687.37,312.00) scale(0.02700,-0.02700)" d="M88 0V486H146V396H158Q176 435 217.0 465.5Q258 496 336 496Q389 496 433.0 474.0Q477 452 503.5 407.5Q530 363 530 296V0H470V292Q470 372 430.0 407.0Q390 442 323 442Q248 442 198.0 392.5Q148 343 148 243V0Z"/><path transform="translate(704.39,312.00) scale(0.02700,-0.02700)" d="M310 -14Q239 -14 183.5 16.5Q128 47 96.0 104.0Q64 161 64 238V248Q64 326 96.0 382.5Q128 439 183.5 469.5Q239 500 310 500Q380 500 428.5 473.5Q477 447 504.5 404.5Q532 362 539 315L480 303Q475 342 455.0 374.5Q435 407 399.0 426.5Q363 446 310 446Q257 446 215.0 421.5Q173 397 148.5 352.5Q124 308 124 247V239Q124 178 148.5 133.5Q173 89 215.0 64.5Q257 40 310 40Q390 40 432.0 81.5Q474 123 484 183L543 171Q534 124 505.5 81.5Q477 39 428.5 12.5Q380 -14 310 -14Z"/><path transform="translate(721.17,312.00) scale(0.02700,-0.02700)" d="M312 -14Q237 -14 181.5 17.5Q126 49 95.0 106.0Q64 163 64 237V249Q64 324 95.0 380.5Q126 437 180.5 468.5Q235 500 305 500Q373 500 425.5 471.5Q478 443 508.0 389.5Q538 336 538 262V230H124Q127 139 179.5 89.5Q232 40 312 40Q380 40 417.5 71.0Q455 102 475 147L529 123Q514 90 487.5 58.5Q461 27 419.0 6.5Q377 -14 312 -14ZM125 282H477Q473 361 426.0 403.5Q379 446 305 446Q232 446 184.0 403.5Q136 361 125 282Z"/><path transform="translate(745.29,312.00) scale(0.02700,-0.02700)" d="M310 -14Q236 -14 180.5 17.5Q125 49 94.5 105.5Q64 162 64 237V249Q64 324 94.5 380.5Q125 437 180.5 468.5Q236 500 310 500Q384 500 439.5 468.5Q495 437 525.5 380.5Q556 324 556 249V237Q556 162 525.5 105.5Q495 49 439.5 17.5Q384 -14 310 -14ZM310 40Q396 40 446.0 94.5Q496 149 496 239V247Q496 337 446.0 391.5Q396 446 310 446Q225 446 174.5 391.5Q124 337 124 247V239Q124 149 174.5 94.5Q225 40 310 40Z"/><path transform="translate(762.53,312.00) scale(0.02700,-0.02700)" d="M190 0V432H30V486H190V624Q190 660 209.5 680.0Q229 700 268 700H388V646H280Q250 646 250 616V486H414V432H250V0Z"/><path transform="translate(782.48,312.00) scale(0.02700,-0.02700)" d="M310 -14Q236 -14 180.5 17.5Q125 49 94.5 105.5Q64 162 64 237V249Q64 324 94.5 380.5Q125 437 180.5 468.5Q236 500 310 500Q384 500 439.5 468.5Q495 437 525.5 380.5Q556 324 556 249V237Q556 162 525.5 105.5Q495 49 439.5 17.5Q384 -14 310 -14ZM310 40Q396 40 446.0 94.5Q496 149 496 239V247Q496 337 446.0 391.5Q396 446 310 446Q225 446 174.5 391.5Q124 337 124 247V239Q124 149 174.5 94.5Q225 40 310 40Z"/><path transform="translate(799.72,312.00) scale(0.02700,-0.02700)" d="M88 0V486H146V396H158Q176 435 217.0 465.5Q258 496 336 496Q389 496 433.0 474.0Q477 452 503.5 407.5Q530 363 530 296V0H470V292Q470 372 430.0 407.0Q390 442 323 442Q248 442 198.0 392.5Q148 343 148 243V0Z"/><path transform="translate(816.74,312.00) scale(0.02700,-0.02700)" d="M312 -14Q237 -14 181.5 17.5Q126 49 95.0 106.0Q64 163 64 237V249Q64 324 95.0 380.5Q126 437 180.5 468.5Q235 500 305 500Q373 500 425.5 471.5Q478 443 508.0 389.5Q538 336 538 262V230H124Q127 139 179.5 89.5Q232 40 312 40Q380 40 417.5 71.0Q455 102 475 147L529 123Q514 90 487.5 58.5Q461 27 419.0 6.5Q377 -14 312 -14ZM125 282H477Q473 361 426.0 403.5Q379 446 305 446Q232 446 184.0 403.5Q136 361 125 282Z"/><path transform="translate(833.39,312.00) scale(0.02700,-0.02700)" d="M117 -14Q92 -14 76.0 2.0Q60 18 60 43Q60 68 76.0 84.0Q92 100 117 100Q142 100 158.0 84.0Q174 68 174 43Q174 18 158.0 2.0Q142 -14 117 -14Z"/></g>
<g fill="#6f6f6f"><path transform="translate(381.06,352.00) scale(0.01900,-0.01900)" d="M88 0V700H148V0Z"/><path transform="translate(387.04,352.00) scale(0.01900,-0.01900)" d="M310 -14Q236 -14 180.5 17.5Q125 49 94.5 105.5Q64 162 64 237V249Q64 324 94.5 380.5Q125 437 180.5 468.5Q236 500 310 500Q384 500 439.5 468.5Q495 437 525.5 380.5Q556 324 556 249V237Q556 162 525.5 105.5Q495 49 439.5 17.5Q384 -14 310 -14ZM310 40Q396 40 446.0 94.5Q496 149 496 239V247Q496 337 446.0 391.5Q396 446 310 446Q225 446 174.5 391.5Q124 337 124 247V239Q124 149 174.5 94.5Q225 40 310 40Z"/><path transform="translate(400.32,352.00) scale(0.01900,-0.01900)" d="M310 -14Q239 -14 183.5 16.5Q128 47 96.0 104.0Q64 161 64 238V248Q64 326 96.0 382.5Q128 439 183.5 469.5Q239 500 310 500Q380 500 428.5 473.5Q477 447 504.5 404.5Q532 362 539 315L480 303Q475 342 455.0 374.5Q435 407 399.0 426.5Q363 446 310 446Q257 446 215.0 421.5Q173 397 148.5 352.5Q124 308 124 247V239Q124 178 148.5 133.5Q173 89 215.0 64.5Q257 40 310 40Q390 40 432.0 81.5Q474 123 484 183L543 171Q534 124 505.5 81.5Q477 39 428.5 12.5Q380 -14 310 -14Z"/><path transform="translate(413.28,352.00) scale(0.01900,-0.01900)" d="M237 -14Q186 -14 144.5 3.5Q103 21 79.0 55.0Q55 89 55 137Q55 186 79.0 218.0Q103 250 144.0 266.0Q185 282 235 282H413V321Q413 380 379.0 413.0Q345 446 280 446Q216 446 178.5 414.5Q141 383 128 330L70 347Q82 390 108.0 424.5Q134 459 177.0 479.5Q220 500 280 500Q372 500 422.5 452.0Q473 404 473 318V82Q473 52 501 52H548V0H484Q453 0 435.0 18.5Q417 37 417 69V76H407Q394 54 373.5 33.0Q353 12 320.0 -1.0Q287 -14 237 -14ZM241 40Q318 40 365.5 86.5Q413 133 413 218V230H236Q184 230 149.5 207.5Q115 185 115 138Q115 91 150.5 65.5Q186 40 241 40Z"/><path transform="translate(425.68,352.00) scale(0.01900,-0.01900)" d="M88 0V700H148V0Z"/><path transform="translate(431.67,352.00) scale(0.01900,-0.01900)" d="M84 230V286H380V230Z"/><path transform="translate(441.98,352.00) scale(0.01900,-0.01900)" d="M190 0V432H30V486H190V624Q190 660 209.5 680.0Q229 700 268 700H388V646H280Q250 646 250 616V486H414V432H250V0Z"/><path transform="translate(451.92,352.00) scale(0.01900,-0.01900)" d="M88 0V486H148V0ZM118 570Q96 570 81.0 585.0Q66 600 66 622Q66 645 81.0 659.5Q96 674 118 674Q141 674 155.5 659.5Q170 645 170 622Q170 600 155.5 585.0Q141 570 118 570Z"/><path transform="translate(457.90,352.00) scale(0.01900,-0.01900)" d="M88 0V486H146V425H158Q172 458 199.5 473.0Q227 488 276 488H333V432H269Q214 432 181.0 401.0Q148 370 148 304V0Z"/><path transform="translate(466.41,352.00) scale(0.01900,-0.01900)" d="M281 -14Q193 -14 130.5 28.0Q68 70 54 167L113 178Q121 125 145.5 94.5Q170 64 205.5 51.0Q241 38 281 38Q341 38 377.5 62.5Q414 87 414 130Q414 174 379.5 191.0Q345 208 288 218L242 226Q196 234 159.0 250.5Q122 267 100.5 295.0Q79 323 79 365Q79 428 128.5 464.0Q178 500 260 500Q343 500 393.5 462.5Q444 425 457 354L401 342Q391 400 353.5 424.0Q316 448 260 448Q205 448 172.0 427.0Q139 406 139 365Q139 325 169.0 306.5Q199 288 251 279L297 271Q347 263 387.0 247.5Q427 232 450.5 204.0Q474 176 474 130Q474 61 422.0 23.5Q370 -14 281 -14Z"/><path transform="translate(477.95,352.00) scale(0.01900,-0.01900)" d="M264 0Q225 0 205.5 20.0Q186 40 186 76V432H30V486H186V668H246V486H416V432H246V84Q246 54 276 54H390V0Z"/><path transform="translate(501.03,352.00) scale(0.01900,-0.01900)" d="M87 231Q62 231 46.0 247.0Q30 263 30 288Q30 313 46.0 329.0Q62 345 87 345Q112 345 128.0 329.0Q144 313 144 288Q144 263 128.0 247.0Q112 231 87 231Z"/><path transform="translate(518.64,352.00) scale(0.01900,-0.01900)" d="M88 0V486H146V396H158Q176 435 217.0 465.5Q258 496 336 496Q389 496 433.0 474.0Q477 452 503.5 407.5Q530 363 530 296V0H470V292Q470 372 430.0 407.0Q390 442 323 442Q248 442 198.0 392.5Q148 343 148 243V0Z"/><path transform="translate(531.77,352.00) scale(0.01900,-0.01900)" d="M310 -14Q236 -14 180.5 17.5Q125 49 94.5 105.5Q64 162 64 237V249Q64 324 94.5 380.5Q125 437 180.5 468.5Q236 500 310 500Q384 500 439.5 468.5Q495 437 525.5 380.5Q556 324 556 249V237Q556 162 525.5 105.5Q495 49 439.5 17.5Q384 -14 310 -14ZM310 40Q396 40 446.0 94.5Q496 149 496 239V247Q496 337 446.0 391.5Q396 446 310 446Q225 446 174.5 391.5Q124 337 124 247V239Q124 149 174.5 94.5Q225 40 310 40Z"/><path transform="translate(551.45,352.00) scale(0.01900,-0.01900)" d="M237 -14Q186 -14 144.5 3.5Q103 21 79.0 55.0Q55 89 55 137Q55 186 79.0 218.0Q103 250 144.0 266.0Q185 282 235 282H413V321Q413 380 379.0 413.0Q345 446 280 446Q216 446 178.5 414.5Q141 383 128 330L70 347Q82 390 108.0 424.5Q134 459 177.0 479.5Q220 500 280 500Q372 500 422.5 452.0Q473 404 473 318V82Q473 52 501 52H548V0H484Q453 0 435.0 18.5Q417 37 417 69V76H407Q394 54 373.5 33.0Q353 12 320.0 -1.0Q287 -14 237 -14ZM241 40Q318 40 365.5 86.5Q413 133 413 218V230H236Q184 230 149.5 207.5Q115 185 115 138Q115 91 150.5 65.5Q186 40 241 40Z"/><path transform="translate(563.85,352.00) scale(0.01900,-0.01900)" d="M310 -14Q239 -14 183.5 16.5Q128 47 96.0 104.0Q64 161 64 238V248Q64 326 96.0 382.5Q128 439 183.5 469.5Q239 500 310 500Q380 500 428.5 473.5Q477 447 504.5 404.5Q532 362 539 315L480 303Q475 342 455.0 374.5Q435 407 399.0 426.5Q363 446 310 446Q257 446 215.0 421.5Q173 397 148.5 352.5Q124 308 124 247V239Q124 178 148.5 133.5Q173 89 215.0 64.5Q257 40 310 40Q390 40 432.0 81.5Q474 123 484 183L543 171Q534 124 505.5 81.5Q477 39 428.5 12.5Q380 -14 310 -14Z"/><path transform="translate(576.81,352.00) scale(0.01900,-0.01900)" d="M310 -14Q239 -14 183.5 16.5Q128 47 96.0 104.0Q64 161 64 238V248Q64 326 96.0 382.5Q128 439 183.5 469.5Q239 500 310 500Q380 500 428.5 473.5Q477 447 504.5 404.5Q532 362 539 315L480 303Q475 342 455.0 374.5Q435 407 399.0 426.5Q363 446 310 446Q257 446 215.0 421.5Q173 397 148.5 352.5Q124 308 124 247V239Q124 178 148.5 133.5Q173 89 215.0 64.5Q257 40 310 40Q390 40 432.0 81.5Q474 123 484 183L543 171Q534 124 505.5 81.5Q477 39 428.5 12.5Q380 -14 310 -14Z"/><path transform="translate(589.77,352.00) scale(0.01900,-0.01900)" d="M310 -14Q236 -14 180.5 17.5Q125 49 94.5 105.5Q64 162 64 237V249Q64 324 94.5 380.5Q125 437 180.5 468.5Q236 500 310 500Q384 500 439.5 468.5Q495 437 525.5 380.5Q556 324 556 249V237Q556 162 525.5 105.5Q495 49 439.5 17.5Q384 -14 310 -14ZM310 40Q396 40 446.0 94.5Q496 149 496 239V247Q496 337 446.0 391.5Q396 446 310 446Q225 446 174.5 391.5Q124 337 124 247V239Q124 149 174.5 94.5Q225 40 310 40Z"/><path transform="translate(603.05,352.00) scale(0.01900,-0.01900)" d="M275 -10Q223 -10 178.5 12.0Q134 34 107.5 78.5Q81 123 81 190V486H141V194Q141 115 181.0 79.5Q221 44 288 44Q363 44 413.0 93.5Q463 143 463 243V486H523V0H465V90H453Q435 51 394.0 20.5Q353 -10 275 -10Z"/><path transform="translate(616.16,352.00) scale(0.01900,-0.01900)" d="M88 0V486H146V396H158Q176 435 217.0 465.5Q258 496 336 496Q389 496 433.0 474.0Q477 452 503.5 407.5Q530 363 530 296V0H470V292Q470 372 430.0 407.0Q390 442 323 442Q248 442 198.0 392.5Q148 343 148 243V0Z"/><path transform="translate(629.29,352.00) scale(0.01900,-0.01900)" d="M264 0Q225 0 205.5 20.0Q186 40 186 76V432H30V486H186V668H246V486H416V432H246V84Q246 54 276 54H390V0Z"/><path transform="translate(639.56,352.00) scale(0.01900,-0.01900)" d="M281 -14Q193 -14 130.5 28.0Q68 70 54 167L113 178Q121 125 145.5 94.5Q170 64 205.5 51.0Q241 38 281 38Q341 38 377.5 62.5Q414 87 414 130Q414 174 379.5 191.0Q345 208 288 218L242 226Q196 234 159.0 250.5Q122 267 100.5 295.0Q79 323 79 365Q79 428 128.5 464.0Q178 500 260 500Q343 500 393.5 462.5Q444 425 457 354L401 342Q391 400 353.5 424.0Q316 448 260 448Q205 448 172.0 427.0Q139 406 139 365Q139 325 169.0 306.5Q199 288 251 279L297 271Q347 263 387.0 247.5Q427 232 450.5 204.0Q474 176 474 130Q474 61 422.0 23.5Q370 -14 281 -14Z"/><path transform="translate(663.90,352.00) scale(0.01900,-0.01900)" d="M87 231Q62 231 46.0 247.0Q30 263 30 288Q30 313 46.0 329.0Q62 345 87 345Q112 345 128.0 329.0Q144 313 144 288Q144 263 128.0 247.0Q112 231 87 231Z"/><path transform="translate(681.51,352.00) scale(0.01900,-0.01900)" d="M88 0V486H146V396H158Q176 435 217.0 465.5Q258 496 336 496Q389 496 433.0 474.0Q477 452 503.5 407.5Q530 363 530 296V0H470V292Q470 372 430.0 407.0Q390 442 323 442Q248 442 198.0 392.5Q148 343 148 243V0Z"/><path transform="translate(694.64,352.00) scale(0.01900,-0.01900)" d="M310 -14Q236 -14 180.5 17.5Q125 49 94.5 105.5Q64 162 64 237V249Q64 324 94.5 380.5Q125 437 180.5 468.5Q236 500 310 500Q384 500 439.5 468.5Q495 437 525.5 380.5Q556 324 556 249V237Q556 162 525.5 105.5Q495 49 439.5 17.5Q384 -14 310 -14ZM310 40Q396 40 446.0 94.5Q496 149 496 239V247Q496 337 446.0 391.5Q396 446 310 446Q225 446 174.5 391.5Q124 337 124 247V239Q124 149 174.5 94.5Q225 40 310 40Z"/><path transform="translate(714.32,352.00) scale(0.01900,-0.01900)" d="M264 0Q225 0 205.5 20.0Q186 40 186 76V432H30V486H186V668H246V486H416V432H246V84Q246 54 276 54H390V0Z"/><path transform="translate(724.60,352.00) scale(0.01900,-0.01900)" d="M312 -14Q237 -14 181.5 17.5Q126 49 95.0 106.0Q64 163 64 237V249Q64 324 95.0 380.5Q126 437 180.5 468.5Q235 500 305 500Q373 500 425.5 471.5Q478 443 508.0 389.5Q538 336 538 262V230H124Q127 139 179.5 89.5Q232 40 312 40Q380 40 417.5 71.0Q455 102 475 147L529 123Q514 90 487.5 58.5Q461 27 419.0 6.5Q377 -14 312 -14ZM125 282H477Q473 361 426.0 403.5Q379 446 305 446Q232 446 184.0 403.5Q136 361 125 282Z"/><path transform="translate(737.46,352.00) scale(0.01900,-0.01900)" d="M88 0V700H148V0Z"/><path transform="translate(743.44,352.00) scale(0.01900,-0.01900)" d="M312 -14Q237 -14 181.5 17.5Q126 49 95.0 106.0Q64 163 64 237V249Q64 324 95.0 380.5Q126 437 180.5 468.5Q235 500 305 500Q373 500 425.5 471.5Q478 443 508.0 389.5Q538 336 538 262V230H124Q127 139 179.5 89.5Q232 40 312 40Q380 40 417.5 71.0Q455 102 475 147L529 123Q514 90 487.5 58.5Q461 27 419.0 6.5Q377 -14 312 -14ZM125 282H477Q473 361 426.0 403.5Q379 446 305 446Q232 446 184.0 403.5Q136 361 125 282Z"/><path transform="translate(756.31,352.00) scale(0.01900,-0.01900)" d="M88 0V486H146V422H158Q173 449 206.0 472.5Q239 496 300 496Q359 496 395.5 469.0Q432 442 448 404H460Q477 442 513.0 469.0Q549 496 614 496Q664 496 701.0 475.5Q738 455 759.0 418.5Q780 382 780 333V0H720V327Q720 379 688.5 410.5Q657 442 600 442Q542 442 503.0 404.5Q464 367 464 295V0H404V327Q404 379 372.5 410.5Q341 442 284 442Q226 442 187.0 404.5Q148 367 148 295V0Z"/><path transform="translate(774.18,352.00) scale(0.01900,-0.01900)" d="M312 -14Q237 -14 181.5 17.5Q126 49 95.0 106.0Q64 163 64 237V249Q64 324 95.0 380.5Q126 437 180.5 468.5Q235 500 305 500Q373 500 425.5 471.5Q478 443 508.0 389.5Q538 336 538 262V230H124Q127 139 179.5 89.5Q232 40 312 40Q380 40 417.5 71.0Q455 102 475 147L529 123Q514 90 487.5 58.5Q461 27 419.0 6.5Q377 -14 312 -14ZM125 282H477Q473 361 426.0 403.5Q379 446 305 446Q232 446 184.0 403.5Q136 361 125 282Z"/><path transform="translate(787.05,352.00) scale(0.01900,-0.01900)" d="M264 0Q225 0 205.5 20.0Q186 40 186 76V432H30V486H186V668H246V486H416V432H246V84Q246 54 276 54H390V0Z"/><path transform="translate(797.32,352.00) scale(0.01900,-0.01900)" d="M88 0V486H146V425H158Q172 458 199.5 473.0Q227 488 276 488H333V432H269Q214 432 181.0 401.0Q148 370 148 304V0Z"/><path transform="translate(805.83,352.00) scale(0.01900,-0.01900)" d="M149 -200V-146H433Q463 -146 463 -116V84H451Q439 60 417.5 38.5Q396 17 361.5 3.5Q327 -10 275 -10Q223 -10 178.5 12.0Q134 34 107.5 78.0Q81 122 81 189V486H141V193Q141 114 181.0 79.0Q221 44 288 44Q363 44 413.0 93.0Q463 142 463 242V486H523V-124Q523 -160 503.5 -180.0Q484 -200 445 -200Z"/></g>
</svg>