<svg xmlns="http://www.w3.org/2000/svg" viewBox="0 0 1200 150" width="100%" role="img" aria-label="Language breakdown">
<defs>
 <linearGradient id="bg" x1="0" x2="1" y1="0" y2="1">
  <stop offset="0" stop-color="#0a0d1a"/><stop offset="1" stop-color="#0a0714"/>
 </linearGradient>
 <clipPath id="r"><rect width="1200" height="150" rx="18"/></clipPath>
</defs>
<g clip-path="url(#r)">
 <rect width="1200" height="150" fill="url(#bg)"/>
 <g fill="#5eead4"><path transform="translate(70.00,34.00) scale(0.01700,-0.01700)" d="M66 0V700H198V120H518V0Z"/><path transform="translate(80.41,34.00) scale(0.01700,-0.01700)" d="M18 0 202 700H432L616 0H480L442 154H192L154 0ZM223 276H411L326 617H308Z"/><path transform="translate(92.39,34.00) scale(0.01700,-0.01700)" d="M66 0V700H317L456 90H474V700H604V0H353L214 610H196V0Z"/><path transform="translate(104.98,34.00) scale(0.01700,-0.01700)" d="M308 -14Q236 -14 177.5 18.5Q119 51 84.5 113.5Q50 176 50 266V434Q50 569 126.0 641.5Q202 714 332 714Q461 714 531.5 645.5Q602 577 602 460V456H472V464Q472 501 456.5 531.0Q441 561 410.0 578.5Q379 596 332 596Q262 596 222.0 553.0Q182 510 182 436V264Q182 191 222.0 146.5Q262 102 334 102Q406 102 439.0 140.0Q472 178 472 236V246H306V358H602V0H480V67H462Q455 50 439.5 31.0Q424 12 393.0 -1.0Q362 -14 308 -14Z"/><path transform="translate(117.44,34.00) scale(0.01700,-0.01700)" d="M336 -14Q250 -14 188.5 17.5Q127 49 94.5 107.5Q62 166 62 246V700H194V242Q194 178 230.5 141.0Q267 104 336 104Q405 104 441.5 141.0Q478 178 478 242V700H610V246Q610 166 577.5 107.5Q545 49 483.5 17.5Q422 -14 336 -14Z"/><path transform="translate(130.06,34.00) scale(0.01700,-0.01700)" d="M18 0 202 700H432L616 0H480L442 154H192L154 0ZM223 276H411L326 617H308Z"/><path transform="translate(142.04,34.00) scale(0.01700,-0.01700)" d="M308 -14Q236 -14 177.5 18.5Q119 51 84.5 113.5Q50 176 50 266V434Q50 569 126.0 641.5Q202 714 332 714Q461 714 531.5 645.5Q602 577 602 460V456H472V464Q472 501 456.5 531.0Q441 561 410.0 578.5Q379 596 332 596Q262 596 222.0 553.0Q182 510 182 436V264Q182 191 222.0 146.5Q262 102 334 102Q406 102 439.0 140.0Q472 178 472 236V246H306V358H602V0H480V67H462Q455 50 439.5 31.0Q424 12 393.0 -1.0Q362 -14 308 -14Z"/><path transform="translate(154.49,34.00) scale(0.01700,-0.01700)" d="M66 0V700H516V580H198V413H488V293H198V120H522V0Z"/><path transform="translate(165.11,34.00) scale(0.01700,-0.01700)" d="M309 -14Q228 -14 166.0 15.0Q104 44 69.0 98.0Q34 152 34 228V256H164V228Q164 165 203.0 133.5Q242 102 309 102Q377 102 410.5 129.0Q444 156 444 198Q444 227 427.5 245.0Q411 263 379.5 274.5Q348 286 303 296L280 301Q208 317 156.5 341.5Q105 366 77.5 406.0Q50 446 50 510Q50 574 80.5 619.5Q111 665 166.5 689.5Q222 714 297 714Q372 714 430.5 688.5Q489 663 522.5 612.5Q556 562 556 486V456H426V486Q426 526 410.5 550.5Q395 575 366.0 586.5Q337 598 297 598Q237 598 208.5 575.5Q180 553 180 514Q180 488 193.5 470.0Q207 452 234.0 440.0Q261 428 303 419L326 414Q401 398 456.5 373.0Q512 348 543.0 307.0Q574 266 574 202Q574 138 541.5 89.5Q509 41 449.5 13.5Q390 -14 309 -14Z"/><path transform="translate(187.65,34.00) scale(0.01700,-0.01700)" d="M-16 -200 278 700H404L110 -200Z"/><path transform="translate(195.44,34.00) scale(0.01700,-0.01700)" d="M-16 -200 278 700H404L110 -200Z"/><path transform="translate(214.28,34.00) scale(0.01700,-0.01700)" d="M224 -14Q171 -14 129.0 4.5Q87 23 62.5 58.5Q38 94 38 145Q38 196 62.5 230.5Q87 265 130.5 282.5Q174 300 230 300H366V328Q366 363 344.0 385.5Q322 408 274 408Q227 408 204.0 386.5Q181 365 174 331L58 370Q70 408 96.5 439.5Q123 471 167.5 490.5Q212 510 276 510Q374 510 431.0 461.0Q488 412 488 319V134Q488 104 516 104H556V0H472Q435 0 411.0 18.0Q387 36 387 66V67H368Q364 55 350.0 35.5Q336 16 306.0 1.0Q276 -14 224 -14ZM246 88Q299 88 332.5 117.5Q366 147 366 196V206H239Q204 206 184.0 191.0Q164 176 164 149Q164 122 185.0 105.0Q206 88 246 88Z"/><path transform="translate(225.30,34.00) scale(0.01700,-0.01700)" d="M303 -14Q231 -14 172.5 16.0Q114 46 80.0 103.0Q46 160 46 241V255Q46 336 80.0 393.0Q114 450 172.5 480.0Q231 510 303 510Q374 510 425.0 485.0Q476 460 507.5 416.5Q539 373 549 318L427 292Q423 322 409.0 346.0Q395 370 369.5 384.0Q344 398 306 398Q268 398 237.5 381.5Q207 365 189.5 332.5Q172 300 172 253V243Q172 196 189.5 163.5Q207 131 237.5 114.5Q268 98 306 98Q363 98 392.5 127.5Q422 157 430 205L552 176Q539 123 507.5 79.5Q476 36 425.0 11.0Q374 -14 303 -14Z"/><path transform="translate(236.46,34.00) scale(0.01700,-0.01700)" d="M70 0V496H194V440H212Q223 470 248.5 484.0Q274 498 308 498H368V386H306Q258 386 227.0 360.5Q196 335 196 282V0Z"/><path transform="translate(244.40,34.00) scale(0.01700,-0.01700)" d="M306 -14Q232 -14 173.0 16.0Q114 46 80.0 103.0Q46 160 46 240V256Q46 336 80.0 393.0Q114 450 173.0 480.0Q232 510 306 510Q380 510 439.0 480.0Q498 450 532.0 393.0Q566 336 566 256V240Q566 160 532.0 103.0Q498 46 439.0 16.0Q380 -14 306 -14ZM306 98Q364 98 402.0 135.5Q440 173 440 243V253Q440 323 402.5 360.5Q365 398 306 398Q248 398 210.0 360.5Q172 323 172 253V243Q172 173 210.0 135.5Q248 98 306 98Z"/><path transform="translate(256.00,34.00) scale(0.01700,-0.01700)" d="M276 -14Q179 -14 117.0 28.0Q55 70 42 148L158 178Q165 143 181.5 123.0Q198 103 222.5 94.5Q247 86 276 86Q320 86 341.0 101.5Q362 117 362 140Q362 163 342.0 175.5Q322 188 278 196L250 201Q198 211 155.0 228.5Q112 246 86.0 277.0Q60 308 60 357Q60 431 114.0 470.5Q168 510 256 510Q339 510 394.0 473.0Q449 436 466 376L349 340Q341 378 316.5 394.0Q292 410 256 410Q220 410 201.0 397.5Q182 385 182 363Q182 339 202.0 327.5Q222 316 256 310L284 305Q340 295 385.5 278.5Q431 262 457.5 231.5Q484 201 484 149Q484 71 427.5 28.5Q371 -14 276 -14Z"/><path transform="translate(266.11,34.00) scale(0.01700,-0.01700)" d="M276 -14Q179 -14 117.0 28.0Q55 70 42 148L158 178Q165 143 181.5 123.0Q198 103 222.5 94.5Q247 86 276 86Q320 86 341.0 101.5Q362 117 362 140Q362 163 342.0 175.5Q322 188 278 196L250 201Q198 211 155.0 228.5Q112 246 86.0 277.0Q60 308 60 357Q60 431 114.0 470.5Q168 510 256 510Q339 510 394.0 473.0Q449 436 466 376L349 340Q341 378 316.5 394.0Q292 410 256 410Q220 410 201.0 397.5Q182 385 182 363Q182 339 202.0 327.5Q222 316 256 310L284 305Q340 295 385.5 278.5Q431 262 457.5 231.5Q484 201 484 149Q484 71 427.5 28.5Q371 -14 276 -14Z"/><path transform="translate(281.73,34.00) scale(0.01700,-0.01700)" d="M258 0V606H240L146 384H12L155 700H386V0Z"/><path transform="translate(290.62,34.00) scale(0.01700,-0.01700)" d="M300 -14Q220 -14 158.5 10.0Q97 34 62.5 79.5Q28 125 28 187V199Q28 247 45.0 278.5Q62 310 87.5 328.0Q113 346 136 353V371Q113 379 90.0 397.0Q67 415 52.5 445.0Q38 475 38 517V529Q38 584 70.5 625.5Q103 667 162.0 690.5Q221 714 300 714Q379 714 438.0 690.5Q497 667 529.5 625.5Q562 584 562 529V517Q562 475 547.5 445.0Q533 415 510.5 397.0Q488 379 464 371V353Q488 346 513.0 328.0Q538 310 555.0 278.5Q572 247 572 199V187Q572 125 537.5 79.5Q503 34 441.5 10.0Q380 -14 300 -14ZM300 100Q369 100 406.5 126.5Q444 153 444 197V205Q444 249 407.5 275.5Q371 302 300 302Q230 302 193.0 275.5Q156 249 156 205V197Q156 153 193.5 126.5Q231 100 300 100ZM300 416Q364 416 399.0 439.0Q434 462 434 504V512Q434 554 398.0 577.0Q362 600 300 600Q238 600 202.0 577.0Q166 554 166 512V504Q166 462 201.0 439.0Q236 416 300 416Z"/><path transform="translate(307.54,34.00) scale(0.01700,-0.01700)" d="M70 0V496H194V440H212Q223 470 248.5 484.0Q274 498 308 498H368V386H306Q258 386 227.0 360.5Q196 335 196 282V0Z"/><path transform="translate(315.47,34.00) scale(0.01700,-0.01700)" d="M296 -14Q222 -14 165.5 17.5Q109 49 77.5 106.5Q46 164 46 242V254Q46 332 77.0 389.5Q108 447 164.0 478.5Q220 510 294 510Q367 510 421.0 477.5Q475 445 505.0 387.5Q535 330 535 254V211H174Q176 160 212.0 128.0Q248 96 300 96Q353 96 378.0 119.0Q403 142 416 170L519 116Q505 90 478.5 59.5Q452 29 408.0 7.5Q364 -14 296 -14ZM175 305H407Q403 348 372.5 374.0Q342 400 293 400Q242 400 212.0 374.0Q182 348 175 305Z"/><path transform="translate(326.48,34.00) scale(0.01700,-0.01700)" d="M70 -200V496H194V436H212Q229 465 265.0 487.5Q301 510 368 510Q428 510 479.0 480.5Q530 451 561.0 394.0Q592 337 592 256V240Q592 159 561.0 102.0Q530 45 479.0 15.5Q428 -14 368 -14Q323 -14 292.5 -3.5Q262 7 243.5 23.5Q225 40 214 57H196V-200ZM330 96Q389 96 427.5 133.5Q466 171 466 243V253Q466 325 427.0 362.5Q388 400 330 400Q272 400 233.0 362.5Q194 325 194 253V243Q194 171 233.0 133.5Q272 96 330 96Z"/><path transform="translate(338.52,34.00) scale(0.01700,-0.01700)" d="M306 -14Q232 -14 173.0 16.0Q114 46 80.0 103.0Q46 160 46 240V256Q46 336 80.0 393.0Q114 450 173.0 480.0Q232 510 306 510Q380 510 439.0 480.0Q498 450 532.0 393.0Q566 336 566 256V240Q566 160 532.0 103.0Q498 46 439.0 16.0Q380 -14 306 -14ZM306 98Q364 98 402.0 135.5Q440 173 440 243V253Q440 323 402.5 360.5Q365 398 306 398Q248 398 210.0 360.5Q172 323 172 253V243Q172 173 210.0 135.5Q248 98 306 98Z"/><path transform="translate(350.13,34.00) scale(0.01700,-0.01700)" d="M276 -14Q179 -14 117.0 28.0Q55 70 42 148L158 178Q165 143 181.5 123.0Q198 103 222.5 94.5Q247 86 276 86Q320 86 341.0 101.5Q362 117 362 140Q362 163 342.0 175.5Q322 188 278 196L250 201Q198 211 155.0 228.5Q112 246 86.0 277.0Q60 308 60 357Q60 431 114.0 470.5Q168 510 256 510Q339 510 394.0 473.0Q449 436 466 376L349 340Q341 378 316.5 394.0Q292 410 256 410Q220 410 201.0 397.5Q182 385 182 363Q182 339 202.0 327.5Q222 316 256 310L284 305Q340 295 385.5 278.5Q431 262 457.5 231.5Q484 201 484 149Q484 71 427.5 28.5Q371 -14 276 -14Z"/><path transform="translate(365.75,34.00) scale(0.01700,-0.01700)" d="M110 191Q69 191 41.5 217.5Q14 244 14 286Q14 328 41.5 354.5Q69 381 110 381Q150 381 177.0 354.5Q204 328 204 286Q204 244 177.0 217.5Q150 191 110 191Z"/><path transform="translate(376.18,34.00) scale(0.01700,-0.01700)" d="M70 -200V496H194V436H212Q229 465 265.0 487.5Q301 510 368 510Q428 510 479.0 480.5Q530 451 561.0 394.0Q592 337 592 256V240Q592 159 561.0 102.0Q530 45 479.0 15.5Q428 -14 368 -14Q323 -14 292.5 -3.5Q262 7 243.5 23.5Q225 40 214 57H196V-200ZM330 96Q389 96 427.5 133.5Q466 171 466 243V253Q466 325 427.0 362.5Q388 400 330 400Q272 400 233.0 362.5Q194 325 194 253V243Q194 171 233.0 133.5Q272 96 330 96Z"/><path transform="translate(388.22,34.00) scale(0.01700,-0.01700)" d="M259 -8Q201 -8 157.5 18.5Q114 45 90.0 92.0Q66 139 66 200V496H192V210Q192 154 219.5 126.0Q247 98 298 98Q356 98 388.0 136.5Q420 175 420 244V496H546V0H422V65H404Q392 40 359.0 16.0Q326 -8 259 -8Z"/><path transform="translate(399.90,34.00) scale(0.01700,-0.01700)" d="M368 -14Q301 -14 265.0 9.0Q229 32 212 60H194V0H70V700H196V439H214Q225 457 243.5 473.0Q262 489 292.5 499.5Q323 510 368 510Q428 510 479.0 480.5Q530 451 561.0 394.0Q592 337 592 256V240Q592 159 561.0 102.0Q530 45 479.0 15.5Q428 -14 368 -14ZM330 96Q388 96 427.0 133.5Q466 171 466 243V253Q466 325 427.5 362.5Q389 400 330 400Q272 400 233.0 362.5Q194 325 194 253V243Q194 171 233.0 133.5Q272 96 330 96Z"/><path transform="translate(411.94,34.00) scale(0.01700,-0.01700)" d="M70 0V700H196V0Z"/><path transform="translate(417.66,34.00) scale(0.01700,-0.01700)" d="M70 0V496H196V0ZM133 554Q99 554 75.5 576.0Q52 598 52 634Q52 670 75.5 692.0Q99 714 133 714Q168 714 191.0 692.0Q214 670 214 634Q214 598 191.0 576.0Q168 554 133 554Z"/><path transform="translate(423.38,34.00) scale(0.01700,-0.01700)" d="M303 -14Q231 -14 172.5 16.0Q114 46 80.0 103.0Q46 160 46 241V255Q46 336 80.0 393.0Q114 450 172.5 480.0Q231 510 303 510Q374 510 425.0 485.0Q476 460 507.5 416.5Q539 373 549 318L427 292Q423 322 409.0 346.0Q395 370 369.5 384.0Q344 398 306 398Q268 398 237.5 381.5Q207 365 189.5 332.5Q172 300 172 253V243Q172 196 189.5 163.5Q207 131 237.5 114.5Q268 98 306 98Q363 98 392.5 127.5Q422 157 430 205L552 176Q539 123 507.5 79.5Q476 36 425.0 11.0Q374 -14 303 -14Z"/><path transform="translate(440.06,34.00) scale(0.01700,-0.01700)" d="M251 141V293H101V407H251V559H369V407H519V293H369V141Z"/><path transform="translate(457.32,34.00) scale(0.01700,-0.01700)" d="M70 -200V496H194V436H212Q229 465 265.0 487.5Q301 510 368 510Q428 510 479.0 480.5Q530 451 561.0 394.0Q592 337 592 256V240Q592 159 561.0 102.0Q530 45 479.0 15.5Q428 -14 368 -14Q323 -14 292.5 -3.5Q262 7 243.5 23.5Q225 40 214 57H196V-200ZM330 96Q389 96 427.5 133.5Q466 171 466 243V253Q466 325 427.0 362.5Q388 400 330 400Q272 400 233.0 362.5Q194 325 194 253V243Q194 171 233.0 133.5Q272 96 330 96Z"/><path transform="translate(469.37,34.00) scale(0.01700,-0.01700)" d="M70 0V496H194V440H212Q223 470 248.5 484.0Q274 498 308 498H368V386H306Q258 386 227.0 360.5Q196 335 196 282V0Z"/><path transform="translate(477.30,34.00) scale(0.01700,-0.01700)" d="M70 0V496H196V0ZM133 554Q99 554 75.5 576.0Q52 598 52 634Q52 670 75.5 692.0Q99 714 133 714Q168 714 191.0 692.0Q214 670 214 634Q214 598 191.0 576.0Q168 554 133 554Z"/><path transform="translate(483.02,34.00) scale(0.01700,-0.01700)" d="M174 0 16 496H150L265 92H283L398 496H532L374 0Z"/><path transform="translate(493.54,34.00) scale(0.01700,-0.01700)" d="M224 -14Q171 -14 129.0 4.5Q87 23 62.5 58.5Q38 94 38 145Q38 196 62.5 230.5Q87 265 130.5 282.5Q174 300 230 300H366V328Q366 363 344.0 385.5Q322 408 274 408Q227 408 204.0 386.5Q181 365 174 331L58 370Q70 408 96.5 439.5Q123 471 167.5 490.5Q212 510 276 510Q374 510 431.0 461.0Q488 412 488 319V134Q488 104 516 104H556V0H472Q435 0 411.0 18.0Q387 36 387 66V67H368Q364 55 350.0 35.5Q336 16 306.0 1.0Q276 -14 224 -14ZM246 88Q299 88 332.5 117.5Q366 147 366 196V206H239Q204 206 184.0 191.0Q164 176 164 149Q164 122 185.0 105.0Q206 88 246 88Z"/><path transform="translate(504.56,34.00) scale(0.01700,-0.01700)" d="M260 0Q211 0 180.5 30.5Q150 61 150 112V392H26V496H150V650H276V496H412V392H276V134Q276 104 304 104H400V0Z"/><path transform="translate(513.52,34.00) scale(0.01700,-0.01700)" d="M296 -14Q222 -14 165.5 17.5Q109 49 77.5 106.5Q46 164 46 242V254Q46 332 77.0 389.5Q108 447 164.0 478.5Q220 510 294 510Q367 510 421.0 477.5Q475 445 505.0 387.5Q535 330 535 254V211H174Q176 160 212.0 128.0Q248 96 300 96Q353 96 378.0 119.0Q403 142 416 170L519 116Q505 90 478.5 59.5Q452 29 408.0 7.5Q364 -14 296 -14ZM175 305H407Q403 348 372.5 374.0Q342 400 293 400Q242 400 212.0 374.0Q182 348 175 305Z"/></g>
 <rect x="70" y="64" width="1060" height="26" rx="6" fill="#12172b"/>
 <rect x="70.00" y="64" width="751.54" height="26" rx="4" fill="#3178C6"/><rect x="824.54" y="64" width="168.78" height="26" rx="4" fill="#F7C948"/><rect x="996.32" y="64" width="85.46" height="26" rx="4" fill="#F0DB4F"/><rect x="1084.78" y="64" width="36.11" height="26" rx="4" fill="#FF7A45"/><rect x="1123.89" y="64" width="6.11" height="26" rx="4" fill="#a78bfa"/>
 <circle cx="76" cy="127" r="6" fill="#3178C6"/><g fill="#c7cbe0"><path transform="translate(90.00,132.00) scale(0.01500,-0.01500)" d="M228 0V580H24V700H564V580H360V0Z"/><path transform="translate(99.32,132.00) scale(0.01500,-0.01500)" d="M124 -200V-90H394Q422 -90 422 -60V65H404Q396 48 379.0 31.0Q362 14 333.0 3.0Q304 -8 259 -8Q201 -8 157.5 18.5Q114 45 90.0 92.0Q66 139 66 200V496H192V210Q192 154 219.5 126.0Q247 98 298 98Q356 98 388.0 136.5Q420 175 420 244V496H546V-88Q546 -139 516.0 -169.5Q486 -200 436 -200Z"/><path transform="translate(109.06,132.00) scale(0.01500,-0.01500)" d="M70 -200V496H194V436H212Q229 465 265.0 487.5Q301 510 368 510Q428 510 479.0 480.5Q530 451 561.0 394.0Q592 337 592 256V240Q592 159 561.0 102.0Q530 45 479.0 15.5Q428 -14 368 -14Q323 -14 292.5 -3.5Q262 7 243.5 23.5Q225 40 214 57H196V-200ZM330 96Q389 96 427.5 133.5Q466 171 466 243V253Q466 325 427.0 362.5Q388 400 330 400Q272 400 233.0 362.5Q194 325 194 253V243Q194 171 233.0 133.5Q272 96 330 96Z"/><path transform="translate(119.13,132.00) scale(0.01500,-0.01500)" d="M296 -14Q222 -14 165.5 17.5Q109 49 77.5 106.5Q46 164 46 242V254Q46 332 77.0 389.5Q108 447 164.0 478.5Q220 510 294 510Q367 510 421.0 477.5Q475 445 505.0 387.5Q535 330 535 254V211H174Q176 160 212.0 128.0Q248 96 300 96Q353 96 378.0 119.0Q403 142 416 170L519 116Q505 90 478.5 59.5Q452 29 408.0 7.5Q364 -14 296 -14ZM175 305H407Q403 348 372.5 374.0Q342 400 293 400Q242 400 212.0 374.0Q182 348 175 305Z"/><path transform="translate(128.28,132.00) scale(0.01500,-0.01500)" d="M309 -14Q228 -14 166.0 15.0Q104 44 69.0 98.0Q34 152 34 228V256H164V228Q164 165 203.0 133.5Q242 102 309 102Q377 102 410.5 129.0Q444 156 444 198Q444 227 427.5 245.0Q411 263 379.5 274.5Q348 286 303 296L280 301Q208 317 156.5 341.5Q105 366 77.5 406.0Q50 446 50 510Q50 574 80.5 619.5Q111 665 166.5 689.5Q222 714 297 714Q372 714 430.5 688.5Q489 663 522.5 612.5Q556 562 556 486V456H426V486Q426 526 410.5 550.5Q395 575 366.0 586.5Q337 598 297 598Q237 598 208.5 575.5Q180 553 180 514Q180 488 193.5 470.0Q207 452 234.0 440.0Q261 428 303 419L326 414Q401 398 456.5 373.0Q512 348 543.0 307.0Q574 266 574 202Q574 138 541.5 89.5Q509 41 449.5 13.5Q390 -14 309 -14Z"/><path transform="translate(137.88,132.00) scale(0.01500,-0.01500)" d="M303 -14Q231 -14 172.5 16.0Q114 46 80.0 103.0Q46 160 46 241V255Q46 336 80.0 393.0Q114 450 172.5 480.0Q231 510 303 510Q374 510 425.0 485.0Q476 460 507.5 416.5Q539 373 549 318L427 292Q423 322 409.0 346.0Q395 370 369.5 384.0Q344 398 306 398Q268 398 237.5 381.5Q207 365 189.5 332.5Q172 300 172 253V243Q172 196 189.5 163.5Q207 131 237.5 114.5Q268 98 306 98Q363 98 392.5 127.5Q422 157 430 205L552 176Q539 123 507.5 79.5Q476 36 425.0 11.0Q374 -14 303 -14Z"/><path transform="translate(147.16,132.00) scale(0.01500,-0.01500)" d="M70 0V496H194V440H212Q223 470 248.5 484.0Q274 498 308 498H368V386H306Q258 386 227.0 360.5Q196 335 196 282V0Z"/><path transform="translate(153.60,132.00) scale(0.01500,-0.01500)" d="M70 0V496H196V0ZM133 554Q99 554 75.5 576.0Q52 598 52 634Q52 670 75.5 692.0Q99 714 133 714Q168 714 191.0 692.0Q214 670 214 634Q214 598 191.0 576.0Q168 554 133 554Z"/><path transform="translate(158.09,132.00) scale(0.01500,-0.01500)" d="M70 -200V496H194V436H212Q229 465 265.0 487.5Q301 510 368 510Q428 510 479.0 480.5Q530 451 561.0 394.0Q592 337 592 256V240Q592 159 561.0 102.0Q530 45 479.0 15.5Q428 -14 368 -14Q323 -14 292.5 -3.5Q262 7 243.5 23.5Q225 40 214 57H196V-200ZM330 96Q389 96 427.5 133.5Q466 171 466 243V253Q466 325 427.0 362.5Q388 400 330 400Q272 400 233.0 362.5Q194 325 194 253V243Q194 171 233.0 133.5Q272 96 330 96Z"/><path transform="translate(168.16,132.00) scale(0.01500,-0.01500)" d="M260 0Q211 0 180.5 30.5Q150 61 150 112V392H26V496H150V650H276V496H412V392H276V134Q276 104 304 104H400V0Z"/></g><g fill="#6b7194"><path transform="translate(183.50,132.00) scale(0.01500,-0.01500)" d="M131 0V26Q131 65 137.0 92.5Q143 120 163 155L398 570V586H26V700H530V548L282 105Q269 82 264.0 64.0Q259 46 259 20V0Z"/><path transform="translate(192.31,132.00) scale(0.01500,-0.01500)" d="M258 0V606H240L146 384H12L155 700H386V0Z"/><path transform="translate(199.59,132.00) scale(0.01500,-0.01500)" d="M150 -14Q109 -14 81.5 12.5Q54 39 54 81Q54 123 81.5 149.5Q109 176 150 176Q190 176 217.0 149.5Q244 123 244 81Q244 39 217.0 12.5Q190 -14 150 -14Z"/><path transform="translate(204.56,132.00) scale(0.01500,-0.01500)" d="M42 0V84Q42 157 66.0 205.5Q90 254 135.5 285.5Q181 317 247 337L314 358Q351 370 376.0 387.5Q401 405 414.5 430.0Q428 455 428 487V491Q428 541 394.0 570.5Q360 600 301 600Q243 600 207.5 568.5Q172 537 172 478V460H44V476Q44 552 78.0 605.0Q112 658 170.5 686.0Q229 714 301 714Q373 714 431.0 686.5Q489 659 522.5 609.5Q556 560 556 493V483Q556 416 528.5 369.5Q501 323 454.0 293.5Q407 264 347 245L283 225Q240 212 216.0 196.5Q192 181 182.5 162.5Q173 144 173 118V114H550V0Z"/><path transform="translate(213.97,132.00) scale(0.01500,-0.01500)" d="M148 -13 72 48 610 713 686 652ZM570 -10Q494 -10 451.0 30.5Q408 71 408 141V148Q408 219 451.0 259.5Q494 300 570 300Q644 300 688.0 259.5Q732 219 732 148V141Q732 71 689.0 30.5Q646 -10 570 -10ZM570 72Q599 72 615.5 90.0Q632 108 632 137V153Q632 182 615.5 200.0Q599 218 570 218Q541 218 524.5 200.0Q508 182 508 153V137Q508 108 524.5 90.0Q541 72 570 72ZM188 400Q112 400 69.0 440.5Q26 481 26 551V558Q26 629 69.0 669.5Q112 710 188 710Q262 710 306.0 669.5Q350 629 350 558V551Q350 481 307.0 440.5Q264 400 188 400ZM188 482Q217 482 233.5 500.0Q250 518 250 547V563Q250 592 233.5 610.0Q217 628 188 628Q159 628 142.5 610.0Q126 592 126 563V547Q126 518 142.5 500.0Q159 482 188 482Z"/></g><circle cx="265.845" cy="127" r="6" fill="#F7C948"/><g fill="#c7cbe0"><path transform="translate(279.85,132.00) scale(0.01500,-0.01500)" d="M66 0V700H354Q420 700 470.5 673.5Q521 647 549.5 599.0Q578 551 578 485V471Q578 406 548.5 357.5Q519 309 468.5 282.5Q418 256 354 256H198V0ZM198 376H341Q388 376 417.0 402.0Q446 428 446 473V483Q446 528 417.0 554.0Q388 580 341 580H198Z"/><path transform="translate(289.41,132.00) scale(0.01500,-0.01500)" d="M124 -200V-90H394Q422 -90 422 -60V65H404Q396 48 379.0 31.0Q362 14 333.0 3.0Q304 -8 259 -8Q201 -8 157.5 18.5Q114 45 90.0 92.0Q66 139 66 200V496H192V210Q192 154 219.5 126.0Q247 98 298 98Q356 98 388.0 136.5Q420 175 420 244V496H546V-88Q546 -139 516.0 -169.5Q486 -200 436 -200Z"/><path transform="translate(299.15,132.00) scale(0.01500,-0.01500)" d="M260 0Q211 0 180.5 30.5Q150 61 150 112V392H26V496H150V650H276V496H412V392H276V134Q276 104 304 104H400V0Z"/><path transform="translate(306.49,132.00) scale(0.01500,-0.01500)" d="M70 0V700H196V435H214Q222 451 239.0 467.0Q256 483 284.5 493.5Q313 504 357 504Q415 504 458.5 477.5Q502 451 526.0 404.5Q550 358 550 296V0H424V286Q424 342 396.5 370.0Q369 398 318 398Q260 398 228.0 359.5Q196 321 196 252V0Z"/><path transform="translate(316.23,132.00) scale(0.01500,-0.01500)" d="M306 -14Q232 -14 173.0 16.0Q114 46 80.0 103.0Q46 160 46 240V256Q46 336 80.0 393.0Q114 450 173.0 480.0Q232 510 306 510Q380 510 439.0 480.0Q498 450 532.0 393.0Q566 336 566 256V240Q566 160 532.0 103.0Q498 46 439.0 16.0Q380 -14 306 -14ZM306 98Q364 98 402.0 135.5Q440 173 440 243V253Q440 323 402.5 360.5Q365 398 306 398Q248 398 210.0 360.5Q172 323 172 253V243Q172 173 210.0 135.5Q248 98 306 98Z"/><path transform="translate(325.91,132.00) scale(0.01500,-0.01500)" d="M70 0V496H194V431H212Q224 457 257.0 480.5Q290 504 357 504Q415 504 458.5 477.5Q502 451 526.0 404.5Q550 358 550 296V0H424V286Q424 342 396.5 370.0Q369 398 318 398Q260 398 228.0 359.5Q196 321 196 252V0Z"/></g><g fill="#6b7194"><path transform="translate(343.65,132.00) scale(0.01500,-0.01500)" d="M258 0V606H240L146 384H12L155 700H386V0Z"/><path transform="translate(350.93,132.00) scale(0.01500,-0.01500)" d="M312 -14Q232 -14 173.0 16.0Q114 46 82.0 99.0Q50 152 50 221V460Q50 545 84.5 601.5Q119 658 179.5 686.0Q240 714 318 714Q396 714 453.5 688.0Q511 662 542.5 613.0Q574 564 574 496H444Q444 538 415.0 569.0Q386 600 318 600Q251 600 214.5 565.0Q178 530 178 468V396H196Q213 416 248.0 434.0Q283 452 350 452Q411 452 462.5 426.0Q514 400 546.0 350.5Q578 301 578 231V219Q578 150 545.0 97.5Q512 45 452.0 15.5Q392 -14 312 -14ZM314 100Q377 100 413.5 133.0Q450 166 450 221V229Q450 266 433.5 293.0Q417 320 386.5 335.0Q356 350 314 350Q273 350 242.0 335.0Q211 320 194.5 293.0Q178 266 178 229V221Q178 166 214.5 133.0Q251 100 314 100Z"/><path transform="translate(360.69,132.00) scale(0.01500,-0.01500)" d="M150 -14Q109 -14 81.5 12.5Q54 39 54 81Q54 123 81.5 149.5Q109 176 150 176Q190 176 217.0 149.5Q244 123 244 81Q244 39 217.0 12.5Q190 -14 150 -14Z"/><path transform="translate(365.67,132.00) scale(0.01500,-0.01500)" d="M42 0V84Q42 157 66.0 205.5Q90 254 135.5 285.5Q181 317 247 337L314 358Q351 370 376.0 387.5Q401 405 414.5 430.0Q428 455 428 487V491Q428 541 394.0 570.5Q360 600 301 600Q243 600 207.5 568.5Q172 537 172 478V460H44V476Q44 552 78.0 605.0Q112 658 170.5 686.0Q229 714 301 714Q373 714 431.0 686.5Q489 659 522.5 609.5Q556 560 556 493V483Q556 416 528.5 369.5Q501 323 454.0 293.5Q407 264 347 245L283 225Q240 212 216.0 196.5Q192 181 182.5 162.5Q173 144 173 118V114H550V0Z"/><path transform="translate(375.08,132.00) scale(0.01500,-0.01500)" d="M148 -13 72 48 610 713 686 652ZM570 -10Q494 -10 451.0 30.5Q408 71 408 141V148Q408 219 451.0 259.5Q494 300 570 300Q644 300 688.0 259.5Q732 219 732 148V141Q732 71 689.0 30.5Q646 -10 570 -10ZM570 72Q599 72 615.5 90.0Q632 108 632 137V153Q632 182 615.5 200.0Q599 218 570 218Q541 218 524.5 200.0Q508 182 508 153V137Q508 108 524.5 90.0Q541 72 570 72ZM188 400Q112 400 69.0 440.5Q26 481 26 551V558Q26 629 69.0 669.5Q112 710 188 710Q262 710 306.0 669.5Q350 629 350 558V551Q350 481 307.0 440.5Q264 400 188 400ZM188 482Q217 482 233.5 500.0Q250 518 250 547V563Q250 592 233.5 610.0Q217 628 188 628Q159 628 142.5 610.0Q126 592 126 563V547Q126 518 142.5 500.0Q159 482 188 482Z"/></g><circle cx="426.94500000000005" cy="127" r="6" fill="#F0DB4F"/><g fill="#c7cbe0"><path transform="translate(440.95,132.00) scale(0.01500,-0.01500)" d="M267 -14Q159 -14 95.5 45.0Q32 104 32 210V276H164V210Q164 163 190.0 136.5Q216 110 263 110Q307 110 331.5 136.0Q356 162 356 210V580H236V700H568V580H488V210Q488 101 429.0 43.5Q370 -14 267 -14Z"/><path transform="translate(450.60,132.00) scale(0.01500,-0.01500)" d="M224 -14Q171 -14 129.0 4.5Q87 23 62.5 58.5Q38 94 38 145Q38 196 62.5 230.5Q87 265 130.5 282.5Q174 300 230 300H366V328Q366 363 344.0 385.5Q322 408 274 408Q227 408 204.0 386.5Q181 365 174 331L58 370Q70 408 96.5 439.5Q123 471 167.5 490.5Q212 510 276 510Q374 510 431.0 461.0Q488 412 488 319V134Q488 104 516 104H556V0H472Q435 0 411.0 18.0Q387 36 387 66V67H368Q364 55 350.0 35.5Q336 16 306.0 1.0Q276 -14 224 -14ZM246 88Q299 88 332.5 117.5Q366 147 366 196V206H239Q204 206 184.0 191.0Q164 176 164 149Q164 122 185.0 105.0Q206 88 246 88Z"/><path transform="translate(459.77,132.00) scale(0.01500,-0.01500)" d="M174 0 16 496H150L265 92H283L398 496H532L374 0Z"/><path transform="translate(468.49,132.00) scale(0.01500,-0.01500)" d="M224 -14Q171 -14 129.0 4.5Q87 23 62.5 58.5Q38 94 38 145Q38 196 62.5 230.5Q87 265 130.5 282.5Q174 300 230 300H366V328Q366 363 344.0 385.5Q322 408 274 408Q227 408 204.0 386.5Q181 365 174 331L58 370Q70 408 96.5 439.5Q123 471 167.5 490.5Q212 510 276 510Q374 510 431.0 461.0Q488 412 488 319V134Q488 104 516 104H556V0H472Q435 0 411.0 18.0Q387 36 387 66V67H368Q364 55 350.0 35.5Q336 16 306.0 1.0Q276 -14 224 -14ZM246 88Q299 88 332.5 117.5Q366 147 366 196V206H239Q204 206 184.0 191.0Q164 176 164 149Q164 122 185.0 105.0Q206 88 246 88Z"/><path transform="translate(477.66,132.00) scale(0.01500,-0.01500)" d="M309 -14Q228 -14 166.0 15.0Q104 44 69.0 98.0Q34 152 34 228V256H164V228Q164 165 203.0 133.5Q242 102 309 102Q377 102 410.5 129.0Q444 156 444 198Q444 227 427.5 245.0Q411 263 379.5 274.5Q348 286 303 296L280 301Q208 317 156.5 341.5Q105 366 77.5 406.0Q50 446 50 510Q50 574 80.5 619.5Q111 665 166.5 689.5Q222 714 297 714Q372 714 430.5 688.5Q489 663 522.5 612.5Q556 562 556 486V456H426V486Q426 526 410.5 550.5Q395 575 366.0 586.5Q337 598 297 598Q237 598 208.5 575.5Q180 553 180 514Q180 488 193.5 470.0Q207 452 234.0 440.0Q261 428 303 419L326 414Q401 398 456.5 373.0Q512 348 543.0 307.0Q574 266 574 202Q574 138 541.5 89.5Q509 41 449.5 13.5Q390 -14 309 -14Z"/><path transform="translate(487.25,132.00) scale(0.01500,-0.01500)" d="M303 -14Q231 -14 172.5 16.0Q114 46 80.0 103.0Q46 160 46 241V255Q46 336 80.0 393.0Q114 450 172.5 480.0Q231 510 303 510Q374 510 425.0 485.0Q476 460 507.5 416.5Q539 373 549 318L427 292Q423 322 409.0 346.0Q395 370 369.5 384.0Q344 398 306 398Q268 398 237.5 381.5Q207 365 189.5 332.5Q172 300 172 253V243Q172 196 189.5 163.5Q207 131 237.5 114.5Q268 98 306 98Q363 98 392.5 127.5Q422 157 430 205L552 176Q539 123 507.5 79.5Q476 36 425.0 11.0Q374 -14 303 -14Z"/><path transform="translate(496.54,132.00) scale(0.01500,-0.01500)" d="M70 0V496H194V440H212Q223 470 248.5 484.0Q274 498 308 498H368V386H306Q258 386 227.0 360.5Q196 335 196 282V0Z"/><path transform="translate(502.98,132.00) scale(0.01500,-0.01500)" d="M70 0V496H196V0ZM133 554Q99 554 75.5 576.0Q52 598 52 634Q52 670 75.5 692.0Q99 714 133 714Q168 714 191.0 692.0Q214 670 214 634Q214 598 191.0 576.0Q168 554 133 554Z"/><path transform="translate(507.47,132.00) scale(0.01500,-0.01500)" d="M70 -200V496H194V436H212Q229 465 265.0 487.5Q301 510 368 510Q428 510 479.0 480.5Q530 451 561.0 394.0Q592 337 592 256V240Q592 159 561.0 102.0Q530 45 479.0 15.5Q428 -14 368 -14Q323 -14 292.5 -3.5Q262 7 243.5 23.5Q225 40 214 57H196V-200ZM330 96Q389 96 427.5 133.5Q466 171 466 243V253Q466 325 427.0 362.5Q388 400 330 400Q272 400 233.0 362.5Q194 325 194 253V243Q194 171 233.0 133.5Q272 96 330 96Z"/><path transform="translate(517.54,132.00) scale(0.01500,-0.01500)" d="M260 0Q211 0 180.5 30.5Q150 61 150 112V392H26V496H150V650H276V496H412V392H276V134Q276 104 304 104H400V0Z"/></g><g fill="#6b7194"><path transform="translate(532.88,132.00) scale(0.01500,-0.01500)" d="M300 -14Q220 -14 158.5 10.0Q97 34 62.5 79.5Q28 125 28 187V199Q28 247 45.0 278.5Q62 310 87.5 328.0Q113 346 136 353V371Q113 379 90.0 397.0Q67 415 52.5 445.0Q38 475 38 517V529Q38 584 70.5 625.5Q103 667 162.0 690.5Q221 714 300 714Q379 714 438.0 690.5Q497 667 529.5 625.5Q562 584 562 529V517Q562 475 547.5 445.0Q533 415 510.5 397.0Q488 379 464 371V353Q488 346 513.0 328.0Q538 310 555.0 278.5Q572 247 572 199V187Q572 125 537.5 79.5Q503 34 441.5 10.0Q380 -14 300 -14ZM300 100Q369 100 406.5 126.5Q444 153 444 197V205Q444 249 407.5 275.5Q371 302 300 302Q230 302 193.0 275.5Q156 249 156 205V197Q156 153 193.5 126.5Q231 100 300 100ZM300 416Q364 416 399.0 439.0Q434 462 434 504V512Q434 554 398.0 577.0Q362 600 300 600Q238 600 202.0 577.0Q166 554 166 512V504Q166 462 201.0 439.0Q236 416 300 416Z"/><path transform="translate(542.38,132.00) scale(0.01500,-0.01500)" d="M150 -14Q109 -14 81.5 12.5Q54 39 54 81Q54 123 81.5 149.5Q109 176 150 176Q190 176 217.0 149.5Q244 123 244 81Q244 39 217.0 12.5Q190 -14 150 -14Z"/><path transform="translate(547.35,132.00) scale(0.01500,-0.01500)" d="M304 -14Q225 -14 164.0 14.0Q103 42 68.5 94.5Q34 147 34 219V237H162V223Q162 167 201.0 133.5Q240 100 304 100Q369 100 404.5 131.0Q440 162 440 209V219Q440 251 424.0 271.0Q408 291 381.0 300.5Q354 310 320 310H180V450L406 570V586H52V700H548V530L337 418V402H374Q421 402 465.5 383.0Q510 364 539.0 324.5Q568 285 568 222V210Q568 142 535.0 91.5Q502 41 442.5 13.5Q383 -14 304 -14Z"/><path transform="translate(556.97,132.00) scale(0.01500,-0.01500)" d="M148 -13 72 48 610 713 686 652ZM570 -10Q494 -10 451.0 30.5Q408 71 408 141V148Q408 219 451.0 259.5Q494 300 570 300Q644 300 688.0 259.5Q732 219 732 148V141Q732 71 689.0 30.5Q646 -10 570 -10ZM570 72Q599 72 615.5 90.0Q632 108 632 137V153Q632 182 615.5 200.0Q599 218 570 218Q541 218 524.5 200.0Q508 182 508 153V137Q508 108 524.5 90.0Q541 72 570 72ZM188 400Q112 400 69.0 440.5Q26 481 26 551V558Q26 629 69.0 669.5Q112 710 188 710Q262 710 306.0 669.5Q350 629 350 558V551Q350 481 307.0 440.5Q264 400 188 400ZM188 482Q217 482 233.5 500.0Q250 518 250 547V563Q250 592 233.5 610.0Q217 628 188 628Q159 628 142.5 610.0Q126 592 126 563V547Q126 518 142.5 500.0Q159 482 188 482Z"/></g><circle cx="608.8350000000002" cy="127" r="6" fill="#FF7A45"/><g fill="#c7cbe0"><path transform="translate(622.84,132.00) scale(0.01500,-0.01500)" d="M66 0V700H370Q436 700 485.0 677.0Q534 654 561.0 612.0Q588 570 588 513V501Q588 438 558.0 399.0Q528 360 484 342V324Q524 322 546.0 296.5Q568 271 568 229V0H436V210Q436 234 423.5 249.0Q411 264 382 264H198V0ZM198 384H356Q403 384 429.5 409.5Q456 435 456 477V487Q456 529 430.0 554.5Q404 580 356 580H198Z"/><path transform="translate(632.82,132.00) scale(0.01500,-0.01500)" d="M259 -8Q201 -8 157.5 18.5Q114 45 90.0 92.0Q66 139 66 200V496H192V210Q192 154 219.5 126.0Q247 98 298 98Q356 98 388.0 136.5Q420 175 420 244V496H546V0H422V65H404Q392 40 359.0 16.0Q326 -8 259 -8Z"/><path transform="translate(642.56,132.00) scale(0.01500,-0.01500)" d="M276 -14Q179 -14 117.0 28.0Q55 70 42 148L158 178Q165 143 181.5 123.0Q198 103 222.5 94.5Q247 86 276 86Q320 86 341.0 101.5Q362 117 362 140Q362 163 342.0 175.5Q322 188 278 196L250 201Q198 211 155.0 228.5Q112 246 86.0 277.0Q60 308 60 357Q60 431 114.0 470.5Q168 510 256 510Q339 510 394.0 473.0Q449 436 466 376L349 340Q341 378 316.5 394.0Q292 410 256 410Q220 410 201.0 397.5Q182 385 182 363Q182 339 202.0 327.5Q222 316 256 310L284 305Q340 295 385.5 278.5Q431 262 457.5 231.5Q484 201 484 149Q484 71 427.5 28.5Q371 -14 276 -14Z"/><path transform="translate(650.92,132.00) scale(0.01500,-0.01500)" d="M260 0Q211 0 180.5 30.5Q150 61 150 112V392H26V496H150V650H276V496H412V392H276V134Q276 104 304 104H400V0Z"/></g><g fill="#6b7194"><path transform="translate(666.26,132.00) scale(0.01500,-0.01500)" d="M304 -14Q225 -14 164.0 14.0Q103 42 68.5 94.5Q34 147 34 219V237H162V223Q162 167 201.0 133.5Q240 100 304 100Q369 100 404.5 131.0Q440 162 440 209V219Q440 251 424.0 271.0Q408 291 381.0 300.5Q354 310 320 310H180V450L406 570V586H52V700H548V530L337 418V402H374Q421 402 465.5 383.0Q510 364 539.0 324.5Q568 285 568 222V210Q568 142 535.0 91.5Q502 41 442.5 13.5Q383 -14 304 -14Z"/><path transform="translate(675.88,132.00) scale(0.01500,-0.01500)" d="M150 -14Q109 -14 81.5 12.5Q54 39 54 81Q54 123 81.5 149.5Q109 176 150 176Q190 176 217.0 149.5Q244 123 244 81Q244 39 217.0 12.5Q190 -14 150 -14Z"/><path transform="translate(680.85,132.00) scale(0.01500,-0.01500)" d="M131 0V26Q131 65 137.0 92.5Q143 120 163 155L398 570V586H26V700H530V548L282 105Q269 82 264.0 64.0Q259 46 259 20V0Z"/><path transform="translate(689.66,132.00) scale(0.01500,-0.01500)" d="M148 -13 72 48 610 713 686 652ZM570 -10Q494 -10 451.0 30.5Q408 71 408 141V148Q408 219 451.0 259.5Q494 300 570 300Q644 300 688.0 259.5Q732 219 732 148V141Q732 71 689.0 30.5Q646 -10 570 -10ZM570 72Q599 72 615.5 90.0Q632 108 632 137V153Q632 182 615.5 200.0Q599 218 570 218Q541 218 524.5 200.0Q508 182 508 153V137Q508 108 524.5 90.0Q541 72 570 72ZM188 400Q112 400 69.0 440.5Q26 481 26 551V558Q26 629 69.0 669.5Q112 710 188 710Q262 710 306.0 669.5Q350 629 350 558V551Q350 481 307.0 440.5Q264 400 188 400ZM188 482Q217 482 233.5 500.0Q250 518 250 547V563Q250 592 233.5 610.0Q217 628 188 628Q159 628 142.5 610.0Q126 592 126 563V547Q126 518 142.5 500.0Q159 482 188 482Z"/></g><circle cx="741.5250000000002" cy="127" r="6" fill="#a78bfa"/><g fill="#c7cbe0"><path transform="translate(755.53,132.00) scale(0.01500,-0.01500)" d="M338 -14Q206 -14 128.0 58.5Q50 131 50 266V434Q50 569 128.0 641.5Q206 714 338 714Q470 714 548.0 641.5Q626 569 626 434V266Q626 131 548.0 58.5Q470 -14 338 -14ZM338 104Q412 104 453.0 147.0Q494 190 494 262V438Q494 510 453.0 553.0Q412 596 338 596Q265 596 223.5 553.0Q182 510 182 438V262Q182 190 223.5 147.0Q265 104 338 104Z"/><path transform="translate(766.17,132.00) scale(0.01500,-0.01500)" d="M260 0Q211 0 180.5 30.5Q150 61 150 112V392H26V496H150V650H276V496H412V392H276V134Q276 104 304 104H400V0Z"/><path transform="translate(773.51,132.00) scale(0.01500,-0.01500)" d="M70 0V700H196V435H214Q222 451 239.0 467.0Q256 483 284.5 493.5Q313 504 357 504Q415 504 458.5 477.5Q502 451 526.0 404.5Q550 358 550 296V0H424V286Q424 342 396.5 370.0Q369 398 318 398Q260 398 228.0 359.5Q196 321 196 252V0Z"/><path transform="translate(783.25,132.00) scale(0.01500,-0.01500)" d="M296 -14Q222 -14 165.5 17.5Q109 49 77.5 106.5Q46 164 46 242V254Q46 332 77.0 389.5Q108 447 164.0 478.5Q220 510 294 510Q367 510 421.0 477.5Q475 445 505.0 387.5Q535 330 535 254V211H174Q176 160 212.0 128.0Q248 96 300 96Q353 96 378.0 119.0Q403 142 416 170L519 116Q505 90 478.5 59.5Q452 29 408.0 7.5Q364 -14 296 -14ZM175 305H407Q403 348 372.5 374.0Q342 400 293 400Q242 400 212.0 374.0Q182 348 175 305Z"/><path transform="translate(792.40,132.00) scale(0.01500,-0.01500)" d="M70 0V496H194V440H212Q223 470 248.5 484.0Q274 498 308 498H368V386H306Q258 386 227.0 360.5Q196 335 196 282V0Z"/></g><g fill="#6b7194"><path transform="translate(806.84,132.00) scale(0.01500,-0.01500)" d="M324 -14Q200 -14 125.0 54.5Q50 123 50 262V438Q50 573 125.0 643.5Q200 714 324 714Q449 714 523.5 643.5Q598 573 598 438V262Q598 123 523.5 54.5Q449 -14 324 -14ZM324 100Q399 100 434.5 141.0Q470 182 470 258V444Q470 521 430.5 560.5Q391 600 324 600Q255 600 216.5 559.0Q178 518 178 444V258Q178 179 214.5 139.5Q251 100 324 100Z"/><path transform="translate(817.06,132.00) scale(0.01500,-0.01500)" d="M150 -14Q109 -14 81.5 12.5Q54 39 54 81Q54 123 81.5 149.5Q109 176 150 176Q190 176 217.0 149.5Q244 123 244 81Q244 39 217.0 12.5Q190 -14 150 -14Z"/><path transform="translate(822.03,132.00) scale(0.01500,-0.01500)" d="M312 -14Q232 -14 173.0 16.0Q114 46 82.0 99.0Q50 152 50 221V460Q50 545 84.5 601.5Q119 658 179.5 686.0Q240 714 318 714Q396 714 453.5 688.0Q511 662 542.5 613.0Q574 564 574 496H444Q444 538 415.0 569.0Q386 600 318 600Q251 600 214.5 565.0Q178 530 178 468V396H196Q213 416 248.0 434.0Q283 452 350 452Q411 452 462.5 426.0Q514 400 546.0 350.5Q578 301 578 231V219Q578 150 545.0 97.5Q512 45 452.0 15.5Q392 -14 312 -14ZM314 100Q377 100 413.5 133.0Q450 166 450 221V229Q450 266 433.5 293.0Q417 320 386.5 335.0Q356 350 314 350Q273 350 242.0 335.0Q211 320 194.5 293.0Q178 266 178 229V221Q178 166 214.5 133.0Q251 100 314 100Z"/><path transform="translate(831.80,132.00) scale(0.01500,-0.01500)" d="M148 -13 72 48 610 713 686 652ZM570 -10Q494 -10 451.0 30.5Q408 71 408 141V148Q408 219 451.0 259.5Q494 300 570 300Q644 300 688.0 259.5Q732 219 732 148V141Q732 71 689.0 30.5Q646 -10 570 -10ZM570 72Q599 72 615.5 90.0Q632 108 632 137V153Q632 182 615.5 200.0Q599 218 570 218Q541 218 524.5 200.0Q508 182 508 153V137Q508 108 524.5 90.0Q541 72 570 72ZM188 400Q112 400 69.0 440.5Q26 481 26 551V558Q26 629 69.0 669.5Q112 710 188 710Q262 710 306.0 669.5Q350 629 350 558V551Q350 481 307.0 440.5Q264 400 188 400ZM188 482Q217 482 233.5 500.0Q250 518 250 547V563Q250 592 233.5 610.0Q217 628 188 628Q159 628 142.5 610.0Q126 592 126 563V547Q126 518 142.5 500.0Q159 482 188 482Z"/></g>
 <rect x="1.5" y="1.5" width="1197" height="147" rx="17" fill="none" stroke="#232a4a" stroke-width="2"/>
</g>
</svg>