<svg xmlns="http://www.w3.org/2000/svg" viewBox="0 0 1200 150" width="100%" role="img" aria-label="Language breakdown">
<defs><clipPath id="l"><rect width="1200" height="150" rx="12"/></clipPath></defs>
<g clip-path="url(#l)">
  <rect width="1200" height="150" fill="#0c0c0c"/>
  <g fill="#8a8a8a"><path transform="translate(40.00,34.00) scale(0.00879,-0.00879)" d="M143 0V1420H578Q845 1420 991.0 1294.5Q1137 1169 1137 940Q1137 686 991.0 546.5Q845 407 578 407H407V0ZM407 650H578Q709 650 780.5 722.0Q852 794 852 923Q852 1045 780.5 1111.0Q709 1177 578 1177H407Z"/><path transform="translate(50.55,34.00) scale(0.00879,-0.00879)" d="M551 -20Q430 -20 316.0 0.5Q202 21 112 58L148 328Q374 232 567 232Q674 232 731.0 270.0Q788 308 788 379Q788 472 671 527L467 626Q316 700 233.0 809.0Q150 918 150 1050Q150 1236 273.0 1338.0Q396 1440 621 1440Q890 1440 1078 1261L896 1052Q753 1189 622 1189Q534 1189 485.0 1151.5Q436 1114 436 1043Q436 948 569 878L761 779Q911 701 992.5 597.0Q1074 493 1074 374Q1074 185 938.0 82.5Q802 -20 551 -20Z"/><path transform="translate(71.64,34.00) scale(0.00879,-0.00879)" d="M748 -20Q69 -20 69 712Q69 1059 240.0 1249.5Q411 1440 724 1440Q865 1440 974.0 1394.5Q1083 1349 1139 1265L991 1071Q896 1188 726 1188Q554 1188 450.5 1066.5Q347 945 347 722Q347 232 782 232Q927 232 1068 292L1114 48Q940 -20 748 -20Z"/><path transform="translate(82.19,34.00) scale(0.00879,-0.00879)" d="M600 -20Q524 -20 471.0 33.5Q418 87 418 162Q418 238 471.0 291.0Q524 344 600 344Q676 344 729.0 291.0Q782 238 782 162Q782 87 729.0 33.5Q676 -20 600 -20ZM600 716Q524 716 471.0 769.5Q418 823 418 898Q418 974 471.0 1027.0Q524 1080 600 1080Q676 1080 729.0 1027.0Q782 974 782 898Q782 823 729.0 769.5Q676 716 600 716Z"/><path transform="translate(92.73,34.00) scale(0.00879,-0.00879)" d="M845 -190 70 1610H345L1120 -190Z"/><path transform="translate(103.28,34.00) scale(0.00879,-0.00879)" d="M703 0 596 799H584L477 0H123L53 1060H316L354 252H372L493 1060H687L808 252H826L891 1060H1147L1047 0Z"/><path transform="translate(113.83,34.00) scale(0.00879,-0.00879)" d="M151 -460V1060H402L419 868H438Q457 975 519.5 1027.5Q582 1080 703 1080Q902 1080 1011.5 936.0Q1121 792 1121 529Q1121 264 1011.5 122.0Q902 -20 705 -20Q594 -20 527.0 33.0Q460 86 444 192H422V-460ZM422 529Q422 375 468.0 305.0Q514 235 629 235Q844 235 844 529Q844 670 788.0 747.5Q732 825 629 825Q526 825 474.0 754.0Q422 683 422 529Z"/><path transform="translate(124.38,34.00) scale(0.00879,-0.00879)" d="M182 -478 172 -242 512 -232Q652 -228 715.0 -154.5Q778 -81 778 62V192H756Q740 86 673.0 33.0Q606 -20 495 -20Q298 -20 188.5 122.0Q79 264 79 529Q79 792 188.5 936.0Q298 1080 497 1080Q618 1080 680.5 1027.5Q743 975 762 868H781L798 1060H1049V94Q1049 -189 916.0 -323.5Q783 -458 492 -468ZM778 529Q778 683 726.5 754.0Q675 825 571 825Q468 825 412.0 747.5Q356 670 356 529Q356 235 571 235Q687 235 732.5 305.0Q778 375 778 529Z"/><path transform="translate(134.92,34.00) scale(0.00879,-0.00879)" d="M182 -478 172 -242 512 -232Q652 -228 715.0 -154.5Q778 -81 778 62V192H756Q740 86 673.0 33.0Q606 -20 495 -20Q298 -20 188.5 122.0Q79 264 79 529Q79 792 188.5 936.0Q298 1080 497 1080Q618 1080 680.5 1027.5Q743 975 762 868H781L798 1060H1049V94Q1049 -189 916.0 -323.5Q783 -458 492 -468ZM778 529Q778 683 726.5 754.0Q675 825 571 825Q468 825 412.0 747.5Q356 670 356 529Q356 235 571 235Q687 235 732.5 305.0Q778 375 778 529Z"/><path transform="translate(145.47,34.00) scale(0.00879,-0.00879)" d="M143 0V1420H407V243H1117V0Z"/><path transform="translate(156.02,34.00) scale(0.00879,-0.00879)" d="M795 -10 778 224H754Q739 102 656.5 41.0Q574 -20 436 -20Q267 -20 173.0 63.0Q79 146 79 299Q79 477 202.0 572.0Q325 667 551 667Q617 667 668.5 662.0Q720 657 768 646V649Q768 734 695.5 773.5Q623 813 480 817L209 824L229 1070L460 1067Q748 1063 888.0 953.5Q1028 844 1028 634V242L1175 220V0ZM768 423Q710 435 663.0 437.0Q616 439 564 439Q354 439 354 319Q354 208 503 208Q589 208 647.5 239.5Q706 271 736.0 320.5Q766 370 768 423Z"/><path transform="translate(166.56,34.00) scale(0.00879,-0.00879)" d="M447 -20Q371 -20 297.0 -14.5Q223 -9 146 0V1500H417V868H445Q472 1080 697 1080Q897 1080 1006.5 955.0Q1116 830 1116 600Q1116 305 941.5 142.5Q767 -20 447 -20ZM417 596V236Q435 235 453.0 235.0Q471 235 489 235Q656 235 747.5 330.5Q839 426 839 600Q839 708 788.5 766.5Q738 825 645 825Q417 825 417 596Z"/><path transform="translate(177.11,34.00) scale(0.00879,-0.00879)" d="M518 -20Q280 -20 139 10L171 269Q297 253 383.0 245.0Q469 237 518 237Q654 237 715.0 255.5Q776 274 776 315Q776 358 713 377L368 477Q262 508 208.5 571.5Q155 635 155 742Q155 1080 736 1080Q804 1080 877.5 1075.0Q951 1070 1033 1060L1004 809Q913 817 845.0 820.0Q777 823 730 823Q573 823 502.5 805.5Q432 788 432 748Q432 704 492 687L789 605Q926 568 993.5 497.5Q1061 427 1061 314Q1061 -20 518 -20Z"/><path transform="translate(187.66,34.00) scale(0.00879,-0.00879)" d="M113 197V467L863 700V718L113 951V1221L1137 843V575Z"/><path transform="translate(208.75,34.00) scale(0.00879,-0.00879)" d="M702 -20Q49 -20 49 712Q49 1059 218.0 1249.5Q387 1440 694 1440Q849 1440 961.5 1391.5Q1074 1343 1137 1254L971 1063Q925 1122 855.5 1155.5Q786 1189 706 1189Q526 1189 426.5 1067.0Q327 945 327 722Q327 232 726 232Q758 232 788.0 234.5Q818 237 845 241V492H610V735H1107V40Q1063 27 953.0 3.5Q843 -20 702 -20Z"/><path transform="translate(219.30,34.00) scale(0.00879,-0.00879)" d="M684 -20Q409 -20 259.0 122.5Q109 265 109 532Q109 792 236.5 936.0Q364 1080 596 1080Q823 1080 947.0 947.0Q1071 814 1071 560Q1071 488 1065 423H392Q454 236 708 236Q780 236 850.0 243.5Q920 251 993 264L1019 8Q917 -10 833.0 -15.0Q749 -20 684 -20ZM379 611H805Q805 718 750.5 775.0Q696 832 598 832Q506 832 449.5 774.5Q393 717 379 611Z"/><path transform="translate(229.84,34.00) scale(0.00879,-0.00879)" d="M825 -20Q551 -20 429.0 90.0Q307 200 307 442V811H53V1060H307V1380H577V1060H1047V811H577V468Q577 347 639.5 292.0Q702 237 845 237Q891 237 943.5 242.5Q996 248 1063 257L1087 4Q1021 -8 958.5 -14.0Q896 -20 825 -20Z"/><path transform="translate(240.39,34.00) scale(0.00879,-0.00879)" d="M83 584V834H1117V584Z"/><path transform="translate(250.94,34.00) scale(0.00879,-0.00879)" d="M143 0V1420H407V243H1117V0Z"/><path transform="translate(261.48,34.00) scale(0.00879,-0.00879)" d="M795 -10 778 224H754Q739 102 656.5 41.0Q574 -20 436 -20Q267 -20 173.0 63.0Q79 146 79 299Q79 477 202.0 572.0Q325 667 551 667Q617 667 668.5 662.0Q720 657 768 646V649Q768 734 695.5 773.5Q623 813 480 817L209 824L229 1070L460 1067Q748 1063 888.0 953.5Q1028 844 1028 634V242L1175 220V0ZM768 423Q710 435 663.0 437.0Q616 439 564 439Q354 439 354 319Q354 208 503 208Q589 208 647.5 239.5Q706 271 736.0 320.5Q766 370 768 423Z"/><path transform="translate(272.03,34.00) scale(0.00879,-0.00879)" d="M778 0V623Q778 719 738.5 771.0Q699 823 626 823Q422 823 422 529V0H151V1060H393L418 868H448Q463 975 521.0 1027.5Q579 1080 697 1080Q865 1080 957.0 978.0Q1049 876 1049 690V0Z"/><path transform="translate(282.58,34.00) scale(0.00879,-0.00879)" d="M182 -478 172 -242 512 -232Q652 -228 715.0 -154.5Q778 -81 778 62V192H756Q740 86 673.0 33.0Q606 -20 495 -20Q298 -20 188.5 122.0Q79 264 79 529Q79 792 188.5 936.0Q298 1080 497 1080Q618 1080 680.5 1027.5Q743 975 762 868H781L798 1060H1049V94Q1049 -189 916.0 -323.5Q783 -458 492 -468ZM778 529Q778 683 726.5 754.0Q675 825 571 825Q468 825 412.0 747.5Q356 670 356 529Q356 235 571 235Q687 235 732.5 305.0Q778 375 778 529Z"/><path transform="translate(293.12,34.00) scale(0.00879,-0.00879)" d="M446 -20Q295 -20 212.0 79.5Q129 179 129 360V1060H400V427Q400 336 441.5 286.5Q483 237 556 237Q651 237 699.5 310.5Q748 384 748 557V1060H1019V242L1165 220V0L766 -10L751 204H720Q695 96 623.0 38.0Q551 -20 446 -20Z"/><path transform="translate(303.67,34.00) scale(0.00879,-0.00879)" d="M795 -10 778 224H754Q739 102 656.5 41.0Q574 -20 436 -20Q267 -20 173.0 63.0Q79 146 79 299Q79 477 202.0 572.0Q325 667 551 667Q617 667 668.5 662.0Q720 657 768 646V649Q768 734 695.5 773.5Q623 813 480 817L209 824L229 1070L460 1067Q748 1063 888.0 953.5Q1028 844 1028 634V242L1175 220V0ZM768 423Q710 435 663.0 437.0Q616 439 564 439Q354 439 354 319Q354 208 503 208Q589 208 647.5 239.5Q706 271 736.0 320.5Q766 370 768 423Z"/><path transform="translate(314.22,34.00) scale(0.00879,-0.00879)" d="M182 -478 172 -242 512 -232Q652 -228 715.0 -154.5Q778 -81 778 62V192H756Q740 86 673.0 33.0Q606 -20 495 -20Q298 -20 188.5 122.0Q79 264 79 529Q79 792 188.5 936.0Q298 1080 497 1080Q618 1080 680.5 1027.5Q743 975 762 868H781L798 1060H1049V94Q1049 -189 916.0 -323.5Q783 -458 492 -468ZM778 529Q778 683 726.5 754.0Q675 825 571 825Q468 825 412.0 747.5Q356 670 356 529Q356 235 571 235Q687 235 732.5 305.0Q778 375 778 529Z"/><path transform="translate(324.77,34.00) scale(0.00879,-0.00879)" d="M684 -20Q409 -20 259.0 122.5Q109 265 109 532Q109 792 236.5 936.0Q364 1080 596 1080Q823 1080 947.0 947.0Q1071 814 1071 560Q1071 488 1065 423H392Q454 236 708 236Q780 236 850.0 243.5Q920 251 993 264L1019 8Q917 -10 833.0 -15.0Q749 -20 684 -20ZM379 611H805Q805 718 750.5 775.0Q696 832 598 832Q506 832 449.5 774.5Q393 717 379 611Z"/><path transform="translate(335.31,34.00) scale(0.00879,-0.00879)" d="M518 -20Q280 -20 139 10L171 269Q297 253 383.0 245.0Q469 237 518 237Q654 237 715.0 255.5Q776 274 776 315Q776 358 713 377L368 477Q262 508 208.5 571.5Q155 635 155 742Q155 1080 736 1080Q804 1080 877.5 1075.0Q951 1070 1033 1060L1004 809Q913 817 845.0 820.0Q777 823 730 823Q573 823 502.5 805.5Q432 788 432 748Q432 704 492 687L789 605Q926 568 993.5 497.5Q1061 427 1061 314Q1061 -20 518 -20Z"/><path transform="translate(377.50,34.00) scale(0.00879,-0.00879)" d="M628 0 654 310H478L452 0H209L235 310H83V558H256L282 862H83V1110H303L329 1420H572L546 1110H722L748 1420H991L965 1110H1117V862H944L918 558H1117V310H897L871 0ZM499 558H675L701 862H525Z"/><path transform="translate(398.59,34.00) scale(0.00879,-0.00879)" d="M153 0V234H498V1164L173 1048V1300L498 1420H762V234H1069V0Z"/><path transform="translate(409.14,34.00) scale(0.00879,-0.00879)" d="M487 506Q301 506 200.0 624.0Q99 742 99 958Q99 1180 229.5 1303.0Q360 1426 600 1426Q836 1426 967.5 1292.5Q1099 1159 1099 920V825Q1099 422 884.0 211.5Q669 1 229 -20L209 232Q817 257 818 738H792Q765 627 684.5 566.5Q604 506 487 506ZM594 757Q702 757 761.0 813.0Q820 869 820 971Q820 1067 761.5 1120.5Q703 1174 598 1174Q493 1174 435.5 1118.0Q378 1062 378 958Q378 861 434.0 809.0Q490 757 594 757Z"/><path transform="translate(430.23,34.00) scale(0.00879,-0.00879)" d="M557 456V232H805V0H63V232H287V828H103V1060H517L548 821H586Q602 1080 857 1080Q1008 1080 1088.5 969.0Q1169 858 1169 649H899Q899 743 864.5 784.0Q830 825 754 825Q655 825 606.0 729.0Q557 633 557 456Z"/><path transform="translate(440.78,34.00) scale(0.00879,-0.00879)" d="M684 -20Q409 -20 259.0 122.5Q109 265 109 532Q109 792 236.5 936.0Q364 1080 596 1080Q823 1080 947.0 947.0Q1071 814 1071 560Q1071 488 1065 423H392Q454 236 708 236Q780 236 850.0 243.5Q920 251 993 264L1019 8Q917 -10 833.0 -15.0Q749 -20 684 -20ZM379 611H805Q805 718 750.5 775.0Q696 832 598 832Q506 832 449.5 774.5Q393 717 379 611Z"/><path transform="translate(451.33,34.00) scale(0.00879,-0.00879)" d="M151 -460V1060H402L419 868H438Q457 975 519.5 1027.5Q582 1080 703 1080Q902 1080 1011.5 936.0Q1121 792 1121 529Q1121 264 1011.5 122.0Q902 -20 705 -20Q594 -20 527.0 33.0Q460 86 444 192H422V-460ZM422 529Q422 375 468.0 305.0Q514 235 629 235Q844 235 844 529Q844 670 788.0 747.5Q732 825 629 825Q526 825 474.0 754.0Q422 683 422 529Z"/><path transform="translate(461.88,34.00) scale(0.00879,-0.00879)" d="M600 -20Q371 -20 245.0 124.0Q119 268 119 530Q119 793 245.0 936.5Q371 1080 600 1080Q829 1080 955.0 936.5Q1081 793 1081 530Q1081 268 955.0 124.0Q829 -20 600 -20ZM600 237Q698 237 751.0 313.5Q804 390 804 530Q804 671 751.0 747.0Q698 823 600 823Q503 823 449.5 747.0Q396 671 396 530Q396 390 449.5 313.5Q503 237 600 237Z"/><path transform="translate(472.42,34.00) scale(0.00879,-0.00879)" d="M518 -20Q280 -20 139 10L171 269Q297 253 383.0 245.0Q469 237 518 237Q654 237 715.0 255.5Q776 274 776 315Q776 358 713 377L368 477Q262 508 208.5 571.5Q155 635 155 742Q155 1080 736 1080Q804 1080 877.5 1075.0Q951 1070 1033 1060L1004 809Q913 817 845.0 820.0Q777 823 730 823Q573 823 502.5 805.5Q432 788 432 748Q432 704 492 687L789 605Q926 568 993.5 497.5Q1061 427 1061 314Q1061 -20 518 -20Z"/><path transform="translate(482.97,34.00) scale(0.00879,-0.00879)" d="M379 -436 459 254H757L637 -436Z"/><path transform="translate(504.06,34.00) scale(0.00879,-0.00879)" d="M151 -460V1060H402L419 868H438Q457 975 519.5 1027.5Q582 1080 703 1080Q902 1080 1011.5 936.0Q1121 792 1121 529Q1121 264 1011.5 122.0Q902 -20 705 -20Q594 -20 527.0 33.0Q460 86 444 192H422V-460ZM422 529Q422 375 468.0 305.0Q514 235 629 235Q844 235 844 529Q844 670 788.0 747.5Q732 825 629 825Q526 825 474.0 754.0Q422 683 422 529Z"/><path transform="translate(514.61,34.00) scale(0.00879,-0.00879)" d="M446 -20Q295 -20 212.0 79.5Q129 179 129 360V1060H400V427Q400 336 441.5 286.5Q483 237 556 237Q651 237 699.5 310.5Q748 384 748 557V1060H1019V242L1165 220V0L766 -10L751 204H720Q695 96 623.0 38.0Q551 -20 446 -20Z"/><path transform="translate(525.16,34.00) scale(0.00879,-0.00879)" d="M447 -20Q371 -20 297.0 -14.5Q223 -9 146 0V1500H417V868H445Q472 1080 697 1080Q897 1080 1006.5 955.0Q1116 830 1116 600Q1116 305 941.5 142.5Q767 -20 447 -20ZM417 596V236Q435 235 453.0 235.0Q471 235 489 235Q656 235 747.5 330.5Q839 426 839 600Q839 708 788.5 766.5Q738 825 645 825Q417 825 417 596Z"/><path transform="translate(535.70,34.00) scale(0.00879,-0.00879)" d="M758 -20Q558 -20 469.5 90.0Q381 200 381 442V1251H81V1500H651V452Q651 352 685.5 307.0Q720 262 838 262Q926 262 1060 300L1091 22Q1006 0 927.0 -10.0Q848 -20 758 -20Z"/><path transform="translate(546.25,34.00) scale(0.00879,-0.00879)" d="M143 0V250H535V810H203V1060H805V250H1119V0ZM658 1203Q581 1203 533.0 1251.0Q485 1299 485 1376Q485 1453 533.0 1501.0Q581 1549 658 1549Q735 1549 783.0 1501.0Q831 1453 831 1376Q831 1299 783.0 1251.0Q735 1203 658 1203Z"/><path transform="translate(556.80,34.00) scale(0.00879,-0.00879)" d="M724 -20Q435 -20 277.0 122.5Q119 265 119 532Q119 792 263.0 936.0Q407 1080 674 1080Q838 1080 955.5 1016.0Q1073 952 1122 835L926 679Q834 823 666 823Q539 823 467.5 750.0Q396 677 396 542Q396 393 487.5 315.0Q579 237 748 237Q820 237 891.5 244.0Q963 251 1031 263L1059 10Q978 -8 892.0 -14.0Q806 -20 724 -20Z"/><path transform="translate(577.89,34.00) scale(0.00879,-0.00879)" d="M466 190V584H100V834H466V1228H734V834H1100V584H734V190Z"/><path transform="translate(598.98,34.00) scale(0.00879,-0.00879)" d="M151 -460V1060H402L419 868H438Q457 975 519.5 1027.5Q582 1080 703 1080Q902 1080 1011.5 936.0Q1121 792 1121 529Q1121 264 1011.5 122.0Q902 -20 705 -20Q594 -20 527.0 33.0Q460 86 444 192H422V-460ZM422 529Q422 375 468.0 305.0Q514 235 629 235Q844 235 844 529Q844 670 788.0 747.5Q732 825 629 825Q526 825 474.0 754.0Q422 683 422 529Z"/><path transform="translate(609.53,34.00) scale(0.00879,-0.00879)" d="M557 456V232H805V0H63V232H287V828H103V1060H517L548 821H586Q602 1080 857 1080Q1008 1080 1088.5 969.0Q1169 858 1169 649H899Q899 743 864.5 784.0Q830 825 754 825Q655 825 606.0 729.0Q557 633 557 456Z"/><path transform="translate(620.08,34.00) scale(0.00879,-0.00879)" d="M143 0V250H535V810H203V1060H805V250H1119V0ZM658 1203Q581 1203 533.0 1251.0Q485 1299 485 1376Q485 1453 533.0 1501.0Q581 1549 658 1549Q735 1549 783.0 1501.0Q831 1453 831 1376Q831 1299 783.0 1251.0Q735 1203 658 1203Z"/><path transform="translate(630.62,34.00) scale(0.00879,-0.00879)" d="M426 0 63 1060H339L591 238H609L861 1060H1137L774 0Z"/><path transform="translate(641.17,34.00) scale(0.00879,-0.00879)" d="M795 -10 778 224H754Q739 102 656.5 41.0Q574 -20 436 -20Q267 -20 173.0 63.0Q79 146 79 299Q79 477 202.0 572.0Q325 667 551 667Q617 667 668.5 662.0Q720 657 768 646V649Q768 734 695.5 773.5Q623 813 480 817L209 824L229 1070L460 1067Q748 1063 888.0 953.5Q1028 844 1028 634V242L1175 220V0ZM768 423Q710 435 663.0 437.0Q616 439 564 439Q354 439 354 319Q354 208 503 208Q589 208 647.5 239.5Q706 271 736.0 320.5Q766 370 768 423Z"/><path transform="translate(651.72,34.00) scale(0.00879,-0.00879)" d="M825 -20Q551 -20 429.0 90.0Q307 200 307 442V811H53V1060H307V1380H577V1060H1047V811H577V468Q577 347 639.5 292.0Q702 237 845 237Q891 237 943.5 242.5Q996 248 1063 257L1087 4Q1021 -8 958.5 -14.0Q896 -20 825 -20Z"/><path transform="translate(662.27,34.00) scale(0.00879,-0.00879)" d="M684 -20Q409 -20 259.0 122.5Q109 265 109 532Q109 792 236.5 936.0Q364 1080 596 1080Q823 1080 947.0 947.0Q1071 814 1071 560Q1071 488 1065 423H392Q454 236 708 236Q780 236 850.0 243.5Q920 251 993 264L1019 8Q917 -10 833.0 -15.0Q749 -20 684 -20ZM379 611H805Q805 718 750.5 775.0Q696 832 598 832Q506 832 449.5 774.5Q393 717 379 611Z"/></g>
  <rect x="40" y="60" width="1120" height="22" fill="#1c1c1c"/>
  <rect x="40.00" y="60" width="844.91" height="22" fill="#b8b8b8"/><rect x="887.91" y="60" width="229.37" height="22" fill="#f2f2f2"/><rect x="1120.28" y="60" width="11.63" height="22" fill="#d0d0d0"/><rect x="1134.91" y="60" width="3.55" height="22" fill="#9a9a9a"/><rect x="1141.45" y="60" width="3.45" height="22" fill="#585858"/><rect x="1147.91" y="60" width="9.09" height="22" fill="#404040"/>
  <rect x="40" y="112" width="11" height="11" fill="#b8b8b8"/><g fill="#f2f2f2"><path transform="translate(60.00,123.00) scale(0.00732,-0.00732)" d="M143 0V1420H578Q845 1420 991.0 1294.5Q1137 1169 1137 940Q1137 686 991.0 546.5Q845 407 578 407H407V0ZM407 650H578Q709 650 780.5 722.0Q852 794 852 923Q852 1045 780.5 1111.0Q709 1177 578 1177H407Z"/><path transform="translate(68.79,123.00) scale(0.00732,-0.00732)" d="M58 -480 48 -245 231 -225Q341 -213 414.0 -161.0Q487 -109 537 0H394L38 1060H325L588 230H613L845 1060H1132L834 94Q774 -97 696.0 -213.5Q618 -330 511.0 -387.5Q404 -445 255 -460Z"/><path transform="translate(77.58,123.00) scale(0.00732,-0.00732)" d="M825 -20Q551 -20 429.0 90.0Q307 200 307 442V811H53V1060H307V1380H577V1060H1047V811H577V468Q577 347 639.5 292.0Q702 237 845 237Q891 237 943.5 242.5Q996 248 1063 257L1087 4Q1021 -8 958.5 -14.0Q896 -20 825 -20Z"/><path transform="translate(86.37,123.00) scale(0.00732,-0.00732)" d="M778 0V640Q778 729 738.5 777.0Q699 825 626 825Q422 825 422 546V0H151V1500H422V868H448Q463 975 521.0 1027.5Q579 1080 697 1080Q865 1080 957.0 978.0Q1049 876 1049 690V0Z"/><path transform="translate(95.16,123.00) scale(0.00732,-0.00732)" d="M600 -20Q371 -20 245.0 124.0Q119 268 119 530Q119 793 245.0 936.5Q371 1080 600 1080Q829 1080 955.0 936.5Q1081 793 1081 530Q1081 268 955.0 124.0Q829 -20 600 -20ZM600 237Q698 237 751.0 313.5Q804 390 804 530Q804 671 751.0 747.0Q698 823 600 823Q503 823 449.5 747.0Q396 671 396 530Q396 390 449.5 313.5Q503 237 600 237Z"/><path transform="translate(103.95,123.00) scale(0.00732,-0.00732)" d="M778 0V623Q778 719 738.5 771.0Q699 823 626 823Q422 823 422 529V0H151V1060H393L418 868H448Q463 975 521.0 1027.5Q579 1080 697 1080Q865 1080 957.0 978.0Q1049 876 1049 690V0Z"/></g><g fill="#8a8a8a"><path transform="translate(120.73,123.00) scale(0.00732,-0.00732)" d="M447 0 810 1177H360V872H95V1420H1171L716 0Z"/><path transform="translate(129.52,123.00) scale(0.00732,-0.00732)" d="M597 -20Q367 -20 241.0 98.5Q115 217 115 431H393Q393 337 449.0 284.5Q505 232 608 232Q711 232 772.0 296.0Q833 360 833 466Q833 562 772.5 618.5Q712 675 609 675Q487 675 380 618H201L221 1420H1021V1177H473L456 879Q508 902 571.5 914.0Q635 926 695 926Q885 926 998.0 801.0Q1111 676 1111 466Q1111 319 1047.5 209.5Q984 100 868.5 40.0Q753 -20 597 -20Z"/><path transform="translate(138.31,123.00) scale(0.00732,-0.00732)" d="M600 -20Q524 -20 471.0 33.5Q418 87 418 162Q418 238 471.0 291.0Q524 344 600 344Q676 344 729.0 291.0Q782 238 782 162Q782 87 729.0 33.5Q676 -20 600 -20Z"/><path transform="translate(147.10,123.00) scale(0.00732,-0.00732)" d="M447 0 810 1177H360V872H95V1420H1171L716 0Z"/><path transform="translate(155.89,123.00) scale(0.00732,-0.00732)" d="M354 794Q208 794 120.0 882.5Q32 971 32 1116Q32 1263 120.0 1351.5Q208 1440 354 1440Q499 1440 586.5 1352.0Q674 1264 674 1116Q674 971 586.5 882.5Q499 794 354 794ZM860 -20Q714 -20 626.0 68.5Q538 157 538 302Q538 449 626.0 537.5Q714 626 860 626Q1005 626 1092.5 537.5Q1180 449 1180 302Q1180 157 1092.5 68.5Q1005 -20 860 -20ZM180 306 63 467 1018 1106 1135 951ZM860 193Q904 193 931.0 223.0Q958 253 958 302Q958 352 931.0 382.5Q904 413 860 413Q814 413 787.0 382.5Q760 352 760 302Q760 253 787.0 223.0Q814 193 860 193ZM354 1007Q398 1007 425.0 1037.0Q452 1067 452 1116Q452 1166 425.0 1196.5Q398 1227 354 1227Q308 1227 281.0 1196.5Q254 1166 254 1116Q254 1067 281.0 1037.0Q308 1007 354 1007Z"/></g><rect x="194.6796875" y="112" width="11" height="11" fill="#f2f2f2"/><g fill="#f2f2f2"><path transform="translate(214.68,123.00) scale(0.00732,-0.00732)" d="M468 0V1177H63V1420H1137V1177H732V0Z"/><path transform="translate(223.47,123.00) scale(0.00732,-0.00732)" d="M58 -480 48 -245 231 -225Q341 -213 414.0 -161.0Q487 -109 537 0H394L38 1060H325L588 230H613L845 1060H1132L834 94Q774 -97 696.0 -213.5Q618 -330 511.0 -387.5Q404 -445 255 -460Z"/><path transform="translate(232.26,123.00) scale(0.00732,-0.00732)" d="M151 -460V1060H402L419 868H438Q457 975 519.5 1027.5Q582 1080 703 1080Q902 1080 1011.5 936.0Q1121 792 1121 529Q1121 264 1011.5 122.0Q902 -20 705 -20Q594 -20 527.0 33.0Q460 86 444 192H422V-460ZM422 529Q422 375 468.0 305.0Q514 235 629 235Q844 235 844 529Q844 670 788.0 747.5Q732 825 629 825Q526 825 474.0 754.0Q422 683 422 529Z"/><path transform="translate(241.05,123.00) scale(0.00732,-0.00732)" d="M684 -20Q409 -20 259.0 122.5Q109 265 109 532Q109 792 236.5 936.0Q364 1080 596 1080Q823 1080 947.0 947.0Q1071 814 1071 560Q1071 488 1065 423H392Q454 236 708 236Q780 236 850.0 243.5Q920 251 993 264L1019 8Q917 -10 833.0 -15.0Q749 -20 684 -20ZM379 611H805Q805 718 750.5 775.0Q696 832 598 832Q506 832 449.5 774.5Q393 717 379 611Z"/><path transform="translate(249.84,123.00) scale(0.00732,-0.00732)" d="M551 -20Q430 -20 316.0 0.5Q202 21 112 58L148 328Q374 232 567 232Q674 232 731.0 270.0Q788 308 788 379Q788 472 671 527L467 626Q316 700 233.0 809.0Q150 918 150 1050Q150 1236 273.0 1338.0Q396 1440 621 1440Q890 1440 1078 1261L896 1052Q753 1189 622 1189Q534 1189 485.0 1151.5Q436 1114 436 1043Q436 948 569 878L761 779Q911 701 992.5 597.0Q1074 493 1074 374Q1074 185 938.0 82.5Q802 -20 551 -20Z"/><path transform="translate(258.62,123.00) scale(0.00732,-0.00732)" d="M724 -20Q435 -20 277.0 122.5Q119 265 119 532Q119 792 263.0 936.0Q407 1080 674 1080Q838 1080 955.5 1016.0Q1073 952 1122 835L926 679Q834 823 666 823Q539 823 467.5 750.0Q396 677 396 542Q396 393 487.5 315.0Q579 237 748 237Q820 237 891.5 244.0Q963 251 1031 263L1059 10Q978 -8 892.0 -14.0Q806 -20 724 -20Z"/><path transform="translate(267.41,123.00) scale(0.00732,-0.00732)" d="M557 456V232H805V0H63V232H287V828H103V1060H517L548 821H586Q602 1080 857 1080Q1008 1080 1088.5 969.0Q1169 858 1169 649H899Q899 743 864.5 784.0Q830 825 754 825Q655 825 606.0 729.0Q557 633 557 456Z"/><path transform="translate(276.20,123.00) scale(0.00732,-0.00732)" d="M143 0V250H535V810H203V1060H805V250H1119V0ZM658 1203Q581 1203 533.0 1251.0Q485 1299 485 1376Q485 1453 533.0 1501.0Q581 1549 658 1549Q735 1549 783.0 1501.0Q831 1453 831 1376Q831 1299 783.0 1251.0Q735 1203 658 1203Z"/><path transform="translate(284.99,123.00) scale(0.00732,-0.00732)" d="M151 -460V1060H402L419 868H438Q457 975 519.5 1027.5Q582 1080 703 1080Q902 1080 1011.5 936.0Q1121 792 1121 529Q1121 264 1011.5 122.0Q902 -20 705 -20Q594 -20 527.0 33.0Q460 86 444 192H422V-460ZM422 529Q422 375 468.0 305.0Q514 235 629 235Q844 235 844 529Q844 670 788.0 747.5Q732 825 629 825Q526 825 474.0 754.0Q422 683 422 529Z"/><path transform="translate(293.78,123.00) scale(0.00732,-0.00732)" d="M825 -20Q551 -20 429.0 90.0Q307 200 307 442V811H53V1060H307V1380H577V1060H1047V811H577V468Q577 347 639.5 292.0Q702 237 845 237Q891 237 943.5 242.5Q996 248 1063 257L1087 4Q1021 -8 958.5 -14.0Q896 -20 825 -20Z"/></g><g fill="#8a8a8a"><path transform="translate(310.57,123.00) scale(0.00732,-0.00732)" d="M135 0V272Q448 439 602.0 620.5Q756 802 756 995Q756 1189 564 1189Q479 1189 386.5 1142.0Q294 1095 227 1017L73 1196Q147 1306 283.0 1373.0Q419 1440 568 1440Q1033 1440 1033 1012Q1033 609 556 272V234H1093V0Z"/><path transform="translate(319.36,123.00) scale(0.00732,-0.00732)" d="M600 -20Q99 -20 99 700Q99 1440 600 1440Q1101 1440 1101 700Q1101 -20 600 -20ZM600 232Q828 232 828 700Q828 1188 600 1188Q368 1188 368 700Q368 232 600 232ZM598 517Q538 517 501.5 567.0Q465 617 465 700Q465 783 501.5 833.0Q538 883 598 883Q658 883 695.0 833.0Q732 783 732 700Q732 617 695.0 567.0Q658 517 598 517Z"/><path transform="translate(328.15,123.00) scale(0.00732,-0.00732)" d="M600 -20Q524 -20 471.0 33.5Q418 87 418 162Q418 238 471.0 291.0Q524 344 600 344Q676 344 729.0 291.0Q782 238 782 162Q782 87 729.0 33.5Q676 -20 600 -20Z"/><path transform="translate(336.94,123.00) scale(0.00732,-0.00732)" d="M447 0 810 1177H360V872H95V1420H1171L716 0Z"/><path transform="translate(345.73,123.00) scale(0.00732,-0.00732)" d="M354 794Q208 794 120.0 882.5Q32 971 32 1116Q32 1263 120.0 1351.5Q208 1440 354 1440Q499 1440 586.5 1352.0Q674 1264 674 1116Q674 971 586.5 882.5Q499 794 354 794ZM860 -20Q714 -20 626.0 68.5Q538 157 538 302Q538 449 626.0 537.5Q714 626 860 626Q1005 626 1092.5 537.5Q1180 449 1180 302Q1180 157 1092.5 68.5Q1005 -20 860 -20ZM180 306 63 467 1018 1106 1135 951ZM860 193Q904 193 931.0 223.0Q958 253 958 302Q958 352 931.0 382.5Q904 413 860 413Q814 413 787.0 382.5Q760 352 760 302Q760 253 787.0 223.0Q814 193 860 193ZM354 1007Q398 1007 425.0 1037.0Q452 1067 452 1116Q452 1166 425.0 1196.5Q398 1227 354 1227Q308 1227 281.0 1196.5Q254 1166 254 1116Q254 1067 281.0 1037.0Q308 1007 354 1007Z"/></g><rect x="384.515625" y="112" width="11" height="11" fill="#d0d0d0"/><g fill="#f2f2f2"><path transform="translate(404.52,123.00) scale(0.00732,-0.00732)" d="M574 -20Q332 -20 200.5 112.5Q69 245 69 484H344Q344 364 405.5 297.5Q467 231 579 231Q692 231 753.5 297.0Q815 363 815 484V1177H490V1420H1079V484Q1079 244 945.5 112.0Q812 -20 574 -20Z"/><path transform="translate(413.30,123.00) scale(0.00732,-0.00732)" d="M795 -10 778 224H754Q739 102 656.5 41.0Q574 -20 436 -20Q267 -20 173.0 63.0Q79 146 79 299Q79 477 202.0 572.0Q325 667 551 667Q617 667 668.5 662.0Q720 657 768 646V649Q768 734 695.5 773.5Q623 813 480 817L209 824L229 1070L460 1067Q748 1063 888.0 953.5Q1028 844 1028 634V242L1175 220V0ZM768 423Q710 435 663.0 437.0Q616 439 564 439Q354 439 354 319Q354 208 503 208Q589 208 647.5 239.5Q706 271 736.0 320.5Q766 370 768 423Z"/><path transform="translate(422.09,123.00) scale(0.00732,-0.00732)" d="M426 0 63 1060H339L591 238H609L861 1060H1137L774 0Z"/><path transform="translate(430.88,123.00) scale(0.00732,-0.00732)" d="M795 -10 778 224H754Q739 102 656.5 41.0Q574 -20 436 -20Q267 -20 173.0 63.0Q79 146 79 299Q79 477 202.0 572.0Q325 667 551 667Q617 667 668.5 662.0Q720 657 768 646V649Q768 734 695.5 773.5Q623 813 480 817L209 824L229 1070L460 1067Q748 1063 888.0 953.5Q1028 844 1028 634V242L1175 220V0ZM768 423Q710 435 663.0 437.0Q616 439 564 439Q354 439 354 319Q354 208 503 208Q589 208 647.5 239.5Q706 271 736.0 320.5Q766 370 768 423Z"/><path transform="translate(439.67,123.00) scale(0.00732,-0.00732)" d="M551 -20Q430 -20 316.0 0.5Q202 21 112 58L148 328Q374 232 567 232Q674 232 731.0 270.0Q788 308 788 379Q788 472 671 527L467 626Q316 700 233.0 809.0Q150 918 150 1050Q150 1236 273.0 1338.0Q396 1440 621 1440Q890 1440 1078 1261L896 1052Q753 1189 622 1189Q534 1189 485.0 1151.5Q436 1114 436 1043Q436 948 569 878L761 779Q911 701 992.5 597.0Q1074 493 1074 374Q1074 185 938.0 82.5Q802 -20 551 -20Z"/><path transform="translate(448.46,123.00) scale(0.00732,-0.00732)" d="M724 -20Q435 -20 277.0 122.5Q119 265 119 532Q119 792 263.0 936.0Q407 1080 674 1080Q838 1080 955.5 1016.0Q1073 952 1122 835L926 679Q834 823 666 823Q539 823 467.5 750.0Q396 677 396 542Q396 393 487.5 315.0Q579 237 748 237Q820 237 891.5 244.0Q963 251 1031 263L1059 10Q978 -8 892.0 -14.0Q806 -20 724 -20Z"/><path transform="translate(457.25,123.00) scale(0.00732,-0.00732)" d="M557 456V232H805V0H63V232H287V828H103V1060H517L548 821H586Q602 1080 857 1080Q1008 1080 1088.5 969.0Q1169 858 1169 649H899Q899 743 864.5 784.0Q830 825 754 825Q655 825 606.0 729.0Q557 633 557 456Z"/><path transform="translate(466.04,123.00) scale(0.00732,-0.00732)" d="M143 0V250H535V810H203V1060H805V250H1119V0ZM658 1203Q581 1203 533.0 1251.0Q485 1299 485 1376Q485 1453 533.0 1501.0Q581 1549 658 1549Q735 1549 783.0 1501.0Q831 1453 831 1376Q831 1299 783.0 1251.0Q735 1203 658 1203Z"/><path transform="translate(474.83,123.00) scale(0.00732,-0.00732)" d="M151 -460V1060H402L419 868H438Q457 975 519.5 1027.5Q582 1080 703 1080Q902 1080 1011.5 936.0Q1121 792 1121 529Q1121 264 1011.5 122.0Q902 -20 705 -20Q594 -20 527.0 33.0Q460 86 444 192H422V-460ZM422 529Q422 375 468.0 305.0Q514 235 629 235Q844 235 844 529Q844 670 788.0 747.5Q732 825 629 825Q526 825 474.0 754.0Q422 683 422 529Z"/><path transform="translate(483.62,123.00) scale(0.00732,-0.00732)" d="M825 -20Q551 -20 429.0 90.0Q307 200 307 442V811H53V1060H307V1380H577V1060H1047V811H577V468Q577 347 639.5 292.0Q702 237 845 237Q891 237 943.5 242.5Q996 248 1063 257L1087 4Q1021 -8 958.5 -14.0Q896 -20 825 -20Z"/></g><g fill="#8a8a8a"><path transform="translate(500.41,123.00) scale(0.00732,-0.00732)" d="M153 0V234H498V1164L173 1048V1300L498 1420H762V234H1069V0Z"/><path transform="translate(509.20,123.00) scale(0.00732,-0.00732)" d="M600 -20Q524 -20 471.0 33.5Q418 87 418 162Q418 238 471.0 291.0Q524 344 600 344Q676 344 729.0 291.0Q782 238 782 162Q782 87 729.0 33.5Q676 -20 600 -20Z"/><path transform="translate(517.98,123.00) scale(0.00732,-0.00732)" d="M514 -20Q399 -20 303.0 -7.0Q207 6 133 28L158 287Q223 270 303.5 251.0Q384 232 506 232Q638 232 710.5 278.0Q783 324 783 408Q783 500 686.0 550.0Q589 600 412 600H380L356 830Q566 856 659.5 919.0Q753 982 753 1072Q753 1189 604 1189Q524 1189 428.0 1157.0Q332 1125 246 1062L108 1266Q204 1358 329.0 1399.0Q454 1440 608 1440Q811 1440 921.0 1357.5Q1031 1275 1031 1122Q1031 988 939.5 889.5Q848 791 701 753V720Q863 705 962.0 616.5Q1061 528 1061 380Q1061 190 918.0 85.0Q775 -20 514 -20Z"/><path transform="translate(526.77,123.00) scale(0.00732,-0.00732)" d="M354 794Q208 794 120.0 882.5Q32 971 32 1116Q32 1263 120.0 1351.5Q208 1440 354 1440Q499 1440 586.5 1352.0Q674 1264 674 1116Q674 971 586.5 882.5Q499 794 354 794ZM860 -20Q714 -20 626.0 68.5Q538 157 538 302Q538 449 626.0 537.5Q714 626 860 626Q1005 626 1092.5 537.5Q1180 449 1180 302Q1180 157 1092.5 68.5Q1005 -20 860 -20ZM180 306 63 467 1018 1106 1135 951ZM860 193Q904 193 931.0 223.0Q958 253 958 302Q958 352 931.0 382.5Q904 413 860 413Q814 413 787.0 382.5Q760 352 760 302Q760 253 787.0 223.0Q814 193 860 193ZM354 1007Q398 1007 425.0 1037.0Q452 1067 452 1116Q452 1166 425.0 1196.5Q398 1227 354 1227Q308 1227 281.0 1196.5Q254 1166 254 1116Q254 1067 281.0 1037.0Q308 1007 354 1007Z"/></g><rect x="565.5625" y="112" width="11" height="11" fill="#9a9a9a"/><g fill="#f2f2f2"><path transform="translate(585.56,123.00) scale(0.00732,-0.00732)" d="M123 0V1420H628Q857 1420 982.0 1308.0Q1107 1196 1107 990Q1107 694 895 579L1159 0H844L635 520Q632 520 628 520H387V0ZM387 763H628Q720 763 771.0 817.5Q822 872 822 970Q822 1069 771.0 1123.0Q720 1177 628 1177H387Z"/><path transform="translate(594.35,123.00) scale(0.00732,-0.00732)" d="M446 -20Q295 -20 212.0 79.5Q129 179 129 360V1060H400V427Q400 336 441.5 286.5Q483 237 556 237Q651 237 699.5 310.5Q748 384 748 557V1060H1019V242L1165 220V0L766 -10L751 204H720Q695 96 623.0 38.0Q551 -20 446 -20Z"/><path transform="translate(603.14,123.00) scale(0.00732,-0.00732)" d="M518 -20Q280 -20 139 10L171 269Q297 253 383.0 245.0Q469 237 518 237Q654 237 715.0 255.5Q776 274 776 315Q776 358 713 377L368 477Q262 508 208.5 571.5Q155 635 155 742Q155 1080 736 1080Q804 1080 877.5 1075.0Q951 1070 1033 1060L1004 809Q913 817 845.0 820.0Q777 823 730 823Q573 823 502.5 805.5Q432 788 432 748Q432 704 492 687L789 605Q926 568 993.5 497.5Q1061 427 1061 314Q1061 -20 518 -20Z"/><path transform="translate(611.93,123.00) scale(0.00732,-0.00732)" d="M825 -20Q551 -20 429.0 90.0Q307 200 307 442V811H53V1060H307V1380H577V1060H1047V811H577V468Q577 347 639.5 292.0Q702 237 845 237Q891 237 943.5 242.5Q996 248 1063 257L1087 4Q1021 -8 958.5 -14.0Q896 -20 825 -20Z"/></g><g fill="#8a8a8a"><path transform="translate(628.72,123.00) scale(0.00732,-0.00732)" d="M600 -20Q99 -20 99 700Q99 1440 600 1440Q1101 1440 1101 700Q1101 -20 600 -20ZM600 232Q828 232 828 700Q828 1188 600 1188Q368 1188 368 700Q368 232 600 232ZM598 517Q538 517 501.5 567.0Q465 617 465 700Q465 783 501.5 833.0Q538 883 598 883Q658 883 695.0 833.0Q732 783 732 700Q732 617 695.0 567.0Q658 517 598 517Z"/><path transform="translate(637.51,123.00) scale(0.00732,-0.00732)" d="M600 -20Q524 -20 471.0 33.5Q418 87 418 162Q418 238 471.0 291.0Q524 344 600 344Q676 344 729.0 291.0Q782 238 782 162Q782 87 729.0 33.5Q676 -20 600 -20Z"/><path transform="translate(646.30,123.00) scale(0.00732,-0.00732)" d="M610 -20Q375 -20 243.0 114.0Q111 248 111 486V581Q111 985 326.0 1195.0Q541 1405 981 1426L1001 1174Q393 1149 392 668H418Q445 779 525.5 839.5Q606 900 723 900Q909 900 1010.0 782.0Q1111 664 1111 448Q1111 226 980.5 103.0Q850 -20 610 -20ZM612 232Q717 232 774.5 288.5Q832 345 832 448Q832 545 776.0 597.0Q720 649 616 649Q508 649 449.0 593.0Q390 537 390 435Q390 339 448.5 285.5Q507 232 612 232Z"/><path transform="translate(655.09,123.00) scale(0.00732,-0.00732)" d="M354 794Q208 794 120.0 882.5Q32 971 32 1116Q32 1263 120.0 1351.5Q208 1440 354 1440Q499 1440 586.5 1352.0Q674 1264 674 1116Q674 971 586.5 882.5Q499 794 354 794ZM860 -20Q714 -20 626.0 68.5Q538 157 538 302Q538 449 626.0 537.5Q714 626 860 626Q1005 626 1092.5 537.5Q1180 449 1180 302Q1180 157 1092.5 68.5Q1005 -20 860 -20ZM180 306 63 467 1018 1106 1135 951ZM860 193Q904 193 931.0 223.0Q958 253 958 302Q958 352 931.0 382.5Q904 413 860 413Q814 413 787.0 382.5Q760 352 760 302Q760 253 787.0 223.0Q814 193 860 193ZM354 1007Q398 1007 425.0 1037.0Q452 1067 452 1116Q452 1166 425.0 1196.5Q398 1227 354 1227Q308 1227 281.0 1196.5Q254 1166 254 1116Q254 1067 281.0 1037.0Q308 1007 354 1007Z"/></g><rect x="693.875" y="112" width="11" height="11" fill="#585858"/><g fill="#f2f2f2"><path transform="translate(713.88,123.00) scale(0.00732,-0.00732)" d="M468 0V1177H63V1420H1137V1177H732V0Z"/><path transform="translate(722.66,123.00) scale(0.00732,-0.00732)" d="M684 -20Q409 -20 259.0 122.5Q109 265 109 532Q109 792 236.5 936.0Q364 1080 596 1080Q823 1080 947.0 947.0Q1071 814 1071 560Q1071 488 1065 423H392Q454 236 708 236Q780 236 850.0 243.5Q920 251 993 264L1019 8Q917 -10 833.0 -15.0Q749 -20 684 -20ZM379 611H805Q805 718 750.5 775.0Q696 832 598 832Q506 832 449.5 774.5Q393 717 379 611Z"/><path transform="translate(731.45,123.00) scale(0.00732,-0.00732)" d="M839 0 600 469 362 0H32L472 703L32 1420H362L600 943L839 1420H1169L728 703L1169 0Z"/></g><g fill="#8a8a8a"><path transform="translate(748.24,123.00) scale(0.00732,-0.00732)" d="M600 -20Q99 -20 99 700Q99 1440 600 1440Q1101 1440 1101 700Q1101 -20 600 -20ZM600 232Q828 232 828 700Q828 1188 600 1188Q368 1188 368 700Q368 232 600 232ZM598 517Q538 517 501.5 567.0Q465 617 465 700Q465 783 501.5 833.0Q538 883 598 883Q658 883 695.0 833.0Q732 783 732 700Q732 617 695.0 567.0Q658 517 598 517Z"/><path transform="translate(757.03,123.00) scale(0.00732,-0.00732)" d="M600 -20Q524 -20 471.0 33.5Q418 87 418 162Q418 238 471.0 291.0Q524 344 600 344Q676 344 729.0 291.0Q782 238 782 162Q782 87 729.0 33.5Q676 -20 600 -20Z"/><path transform="translate(765.82,123.00) scale(0.00732,-0.00732)" d="M610 -20Q375 -20 243.0 114.0Q111 248 111 486V581Q111 985 326.0 1195.0Q541 1405 981 1426L1001 1174Q393 1149 392 668H418Q445 779 525.5 839.5Q606 900 723 900Q909 900 1010.0 782.0Q1111 664 1111 448Q1111 226 980.5 103.0Q850 -20 610 -20ZM612 232Q717 232 774.5 288.5Q832 345 832 448Q832 545 776.0 597.0Q720 649 616 649Q508 649 449.0 593.0Q390 537 390 435Q390 339 448.5 285.5Q507 232 612 232Z"/><path transform="translate(774.61,123.00) scale(0.00732,-0.00732)" d="M354 794Q208 794 120.0 882.5Q32 971 32 1116Q32 1263 120.0 1351.5Q208 1440 354 1440Q499 1440 586.5 1352.0Q674 1264 674 1116Q674 971 586.5 882.5Q499 794 354 794ZM860 -20Q714 -20 626.0 68.5Q538 157 538 302Q538 449 626.0 537.5Q714 626 860 626Q1005 626 1092.5 537.5Q1180 449 1180 302Q1180 157 1092.5 68.5Q1005 -20 860 -20ZM180 306 63 467 1018 1106 1135 951ZM860 193Q904 193 931.0 223.0Q958 253 958 302Q958 352 931.0 382.5Q904 413 860 413Q814 413 787.0 382.5Q760 352 760 302Q760 253 787.0 223.0Q814 193 860 193ZM354 1007Q398 1007 425.0 1037.0Q452 1067 452 1116Q452 1166 425.0 1196.5Q398 1227 354 1227Q308 1227 281.0 1196.5Q254 1166 254 1116Q254 1067 281.0 1037.0Q308 1007 354 1007Z"/></g><rect x="813.3984375" y="112" width="11" height="11" fill="#404040"/><g fill="#f2f2f2"><path transform="translate(833.40,123.00) scale(0.00732,-0.00732)" d="M600 -20Q59 -20 59 700Q59 1440 600 1440Q1141 1440 1141 700Q1141 -20 600 -20ZM600 232Q864 232 864 700Q864 1188 600 1188Q336 1188 336 700Q336 232 600 232Z"/><path transform="translate(842.19,123.00) scale(0.00732,-0.00732)" d="M825 -20Q551 -20 429.0 90.0Q307 200 307 442V811H53V1060H307V1380H577V1060H1047V811H577V468Q577 347 639.5 292.0Q702 237 845 237Q891 237 943.5 242.5Q996 248 1063 257L1087 4Q1021 -8 958.5 -14.0Q896 -20 825 -20Z"/><path transform="translate(850.98,123.00) scale(0.00732,-0.00732)" d="M778 0V640Q778 729 738.5 777.0Q699 825 626 825Q422 825 422 546V0H151V1500H422V868H448Q463 975 521.0 1027.5Q579 1080 697 1080Q865 1080 957.0 978.0Q1049 876 1049 690V0Z"/><path transform="translate(859.77,123.00) scale(0.00732,-0.00732)" d="M684 -20Q409 -20 259.0 122.5Q109 265 109 532Q109 792 236.5 936.0Q364 1080 596 1080Q823 1080 947.0 947.0Q1071 814 1071 560Q1071 488 1065 423H392Q454 236 708 236Q780 236 850.0 243.5Q920 251 993 264L1019 8Q917 -10 833.0 -15.0Q749 -20 684 -20ZM379 611H805Q805 718 750.5 775.0Q696 832 598 832Q506 832 449.5 774.5Q393 717 379 611Z"/><path transform="translate(868.55,123.00) scale(0.00732,-0.00732)" d="M557 456V232H805V0H63V232H287V828H103V1060H517L548 821H586Q602 1080 857 1080Q1008 1080 1088.5 969.0Q1169 858 1169 649H899Q899 743 864.5 784.0Q830 825 754 825Q655 825 606.0 729.0Q557 633 557 456Z"/></g><g fill="#8a8a8a"><path transform="translate(885.34,123.00) scale(0.00732,-0.00732)" d="M153 0V234H498V1164L173 1048V1300L498 1420H762V234H1069V0Z"/><path transform="translate(894.13,123.00) scale(0.00732,-0.00732)" d="M600 -20Q524 -20 471.0 33.5Q418 87 418 162Q418 238 471.0 291.0Q524 344 600 344Q676 344 729.0 291.0Q782 238 782 162Q782 87 729.0 33.5Q676 -20 600 -20Z"/><path transform="translate(902.92,123.00) scale(0.00732,-0.00732)" d="M153 0V234H498V1164L173 1048V1300L498 1420H762V234H1069V0Z"/><path transform="translate(911.71,123.00) scale(0.00732,-0.00732)" d="M354 794Q208 794 120.0 882.5Q32 971 32 1116Q32 1263 120.0 1351.5Q208 1440 354 1440Q499 1440 586.5 1352.0Q674 1264 674 1116Q674 971 586.5 882.5Q499 794 354 794ZM860 -20Q714 -20 626.0 68.5Q538 157 538 302Q538 449 626.0 537.5Q714 626 860 626Q1005 626 1092.5 537.5Q1180 449 1180 302Q1180 157 1092.5 68.5Q1005 -20 860 -20ZM180 306 63 467 1018 1106 1135 951ZM860 193Q904 193 931.0 223.0Q958 253 958 302Q958 352 931.0 382.5Q904 413 860 413Q814 413 787.0 382.5Q760 352 760 302Q760 253 787.0 223.0Q814 193 860 193ZM354 1007Q398 1007 425.0 1037.0Q452 1067 452 1116Q452 1166 425.0 1196.5Q398 1227 354 1227Q308 1227 281.0 1196.5Q254 1166 254 1116Q254 1067 281.0 1037.0Q308 1007 354 1007Z"/></g>
  <rect x="0.5" y="0.5" width="1199" height="149" rx="12" fill="none" stroke="#3a3a3a" stroke-width="1"/>
</g>
</svg>